{"glyphs":{"0":{"ha":785,"x_min":58,"x_max":726,"o":"m 154 326 q 217 135 154 203 q 392 66 280 66 q 566 134 503 66 q 629 323 629 202 l 629 664 q 566 853 629 785 q 392 921 503 921 q 217 852 280 921 q 154 660 154 783 l 154 326 m 58 347 l 58 640 q 72 784 58 736 q 117 875 85 833 q 236 974 165 939 q 392 1008 307 1008 q 637 912 547 1008 q 726 646 726 816 l 726 343 q 713 211 726 263 q 672 118 701 158 q 552 16 625 52 q 392 -20 479 -20 q 237 15 307 -20 q 115 114 166 49 q 72 207 85 152 q 58 347 58 261 z "},"1":{"ha":785,"x_min":183,"x_max":458,"o":"m 458 0 l 355 0 l 355 903 l 183 903 l 183 987 l 458 987 l 458 0 z "},"2":{"ha":785,"x_min":90,"x_max":705,"o":"m 703 0 l 90 0 l 90 96 l 440 428 q 577 583 544 526 q 611 701 611 640 q 550 857 611 794 q 396 920 490 920 q 242 856 300 920 q 184 685 184 791 q 185 671 184 680 q 186 657 186 662 l 90 657 l 90 672 q 178 915 90 821 q 404 1008 266 1008 q 617 918 530 1008 q 705 694 705 827 q 668 548 705 618 q 551 403 631 477 l 218 96 l 703 96 l 703 0 z "},"3":{"ha":785,"x_min":74,"x_max":704,"o":"m 172 300 l 172 292 q 233 130 172 194 q 383 65 294 65 q 543 129 480 65 q 606 293 606 193 q 539 465 606 406 q 345 524 473 524 q 316 523 326 524 q 299 522 307 523 l 299 604 q 315 603 307 604 q 342 603 324 603 q 489 643 439 603 q 538 764 538 684 q 496 878 538 833 q 390 922 454 922 q 276 879 317 922 q 233 756 235 835 l 143 756 q 217 939 149 871 q 395 1007 285 1007 q 567 935 496 1007 q 637 764 637 863 q 615 661 637 705 q 542 581 592 617 q 663 468 623 538 q 704 302 704 399 q 614 73 704 166 q 389 -20 524 -20 q 160 66 244 -20 q 74 300 76 151 l 172 300 z "},"4":{"ha":785,"x_min":60,"x_max":725,"o":"m 525 277 l 529 873 l 161 277 l 525 277 m 618 0 l 522 0 l 522 191 l 60 191 l 60 277 l 507 987 l 618 987 l 618 277 l 725 277 l 725 191 l 618 191 l 618 0 z "},"5":{"ha":785,"x_min":57,"x_max":728,"o":"m 57 300 l 155 300 q 231 136 161 203 q 393 69 300 69 q 562 144 493 69 q 631 329 631 219 q 562 509 631 440 q 382 578 493 578 q 268 550 319 578 q 178 464 217 522 l 103 498 l 191 987 l 636 987 l 636 890 l 273 890 l 224 615 q 308 660 267 646 q 399 673 350 673 q 635 576 543 673 q 728 326 728 478 q 629 81 728 182 q 390 -20 530 -20 q 162 70 256 -20 q 57 300 68 160 z "},"6":{"ha":785,"x_min":57,"x_max":728,"o":"m 397 559 q 227 489 296 559 q 158 315 158 418 q 229 139 158 211 q 399 66 299 66 q 561 136 496 66 q 627 314 627 206 q 562 490 627 421 q 397 559 497 559 m 421 987 l 542 987 l 311 631 q 370 642 343 638 q 418 646 396 646 q 640 552 552 646 q 728 317 728 458 q 632 76 728 172 q 390 -20 536 -20 q 152 74 246 -20 q 57 306 57 168 q 179 612 57 424 q 197 640 191 631 l 421 987 z "},"7":{"ha":785,"x_min":139,"x_max":684,"o":"m 289 0 l 180 0 l 571 890 l 139 890 l 139 987 l 684 987 l 684 899 l 289 0 z "},"8":{"ha":785,"x_min":77,"x_max":708,"o":"m 218 761 q 265 642 218 688 q 386 596 311 596 q 522 638 475 596 q 570 758 570 680 q 520 874 570 829 q 395 920 471 920 q 269 874 319 920 q 218 761 218 829 m 175 283 q 236 127 175 189 q 386 65 298 65 q 546 128 483 65 q 608 288 608 191 q 549 447 608 387 q 393 507 490 507 q 234 447 292 507 q 175 283 175 387 m 227 551 q 148 635 174 586 q 121 746 121 684 q 200 929 121 852 q 390 1007 279 1007 q 585 932 506 1007 q 664 753 664 857 q 637 636 664 685 q 554 551 610 587 q 670 446 632 507 q 708 301 708 385 q 618 71 708 161 q 386 -20 528 -20 q 166 72 256 -20 q 77 294 77 163 q 112 439 77 379 q 227 551 146 500 z "},"9":{"ha":785,"x_min":57,"x_max":728,"o":"m 387 429 q 558 500 489 429 q 627 673 627 570 q 556 849 627 778 q 386 921 486 921 q 223 852 289 921 q 158 675 158 783 q 223 498 158 568 q 387 429 288 429 m 364 0 l 243 0 l 473 358 q 415 347 441 351 q 367 343 389 343 q 145 437 233 343 q 57 672 57 530 q 152 913 57 818 q 393 1008 247 1008 q 632 915 537 1008 q 728 684 728 821 q 606 377 728 565 q 588 349 594 359 l 364 0 z "},"":{"ha":833,"x_min":69,"x_max":764,"o":"m 69 -245 l 69 979 l 764 979 l 764 -245 l 69 -245 m 147 -168 l 686 -168 l 686 901 l 147 901 l 147 -168 z "}," ":{"ha":392,"x_min":0,"x_max":0,"o":""},"!":{"ha":399,"x_min":151,"x_max":248,"o":"m 248 257 l 151 257 l 151 987 l 248 987 l 248 257 m 248 0 l 151 0 l 151 180 l 248 180 l 248 0 z "},"\"":{"ha":386,"x_min":66,"x_max":321,"o":"m 321 972 l 321 597 l 252 597 l 252 972 l 321 972 m 135 972 l 135 597 l 66 597 l 66 972 l 135 972 z "},"#":{"ha":1068,"x_min":79,"x_max":989,"o":"m 661 586 l 481 586 l 415 399 l 596 399 l 661 586 m 623 986 l 509 659 l 688 659 l 804 986 l 890 986 l 775 659 l 989 659 l 964 586 l 749 586 l 682 399 l 913 399 l 888 325 l 657 325 l 542 0 l 454 0 l 571 325 l 389 325 l 272 0 l 186 0 l 301 325 l 79 325 l 106 399 l 326 399 l 395 586 l 155 586 l 179 659 l 419 659 l 536 986 l 623 986 z "},"$":{"ha":785,"x_min":103,"x_max":684,"o":"m 103 293 l 197 293 l 197 282 q 247 137 197 186 q 390 87 296 87 q 532 137 480 87 q 585 269 585 186 q 375 471 585 401 q 355 477 361 475 q 176 575 225 520 q 127 724 127 630 q 189 895 127 823 q 345 979 250 967 l 345 1124 l 441 1124 l 441 979 q 599 903 542 968 q 661 732 656 839 l 564 732 l 564 734 q 518 854 564 809 q 399 899 473 899 q 271 852 318 899 q 224 729 224 806 q 416 555 224 621 q 478 533 456 541 q 636 435 589 492 q 684 285 684 378 q 617 90 684 168 q 441 3 550 12 l 441 -164 l 345 -164 l 345 3 q 170 94 236 14 q 103 293 103 174 z "},"%":{"ha":1218,"x_min":61,"x_max":1156,"o":"m 149 762 q 194 653 149 699 q 302 608 239 608 q 411 653 366 608 q 456 762 456 698 q 411 871 456 827 q 302 916 367 916 q 193 871 238 916 q 149 762 149 826 m 61 764 q 132 936 61 865 q 304 1007 203 1007 q 477 936 406 1007 q 549 764 549 865 q 477 591 549 662 q 304 521 406 521 q 132 591 202 521 q 61 764 61 662 m 833 1007 l 913 1007 l 385 -20 l 306 -20 l 833 1007 m 755 224 q 801 114 755 159 q 909 69 846 69 q 1019 114 974 69 q 1064 224 1064 159 q 1019 332 1064 287 q 909 376 974 376 q 800 332 845 376 q 755 224 755 288 m 669 224 q 740 396 669 325 q 913 467 811 467 q 1085 396 1014 467 q 1156 224 1156 325 q 1085 51 1156 121 q 913 -20 1015 -20 q 740 51 810 -20 q 669 224 669 121 z "},"&":{"ha":964,"x_min":87,"x_max":936,"o":"m 376 599 q 491 673 453 629 q 529 778 529 718 q 491 876 529 836 q 399 916 452 916 q 300 876 338 916 q 262 772 262 837 q 287 689 262 727 q 376 599 312 650 m 603 252 l 340 496 q 229 404 267 460 q 191 278 191 348 q 244 134 191 189 q 380 78 297 78 q 499 120 445 78 q 603 252 553 162 m 673 187 q 551 34 628 87 q 375 -20 473 -20 q 172 67 256 -20 q 87 278 87 154 q 138 444 87 367 q 275 559 189 520 q 185 665 210 618 q 161 774 161 711 q 231 938 161 870 q 403 1006 300 1006 q 563 936 495 1006 q 631 774 631 867 q 582 636 631 699 q 441 534 533 574 l 642 350 l 758 657 l 864 657 l 715 281 l 936 78 l 875 5 l 673 187 z "},"'":{"ha":200,"x_min":66,"x_max":135,"o":"m 135 972 l 135 597 l 66 597 l 66 972 l 135 972 z "},"(":{"ha":367,"x_min":85,"x_max":293,"o":"m 293 1007 l 293 897 q 206 781 232 848 q 180 576 180 714 l 180 131 q 206 -75 180 -7 q 293 -191 232 -142 l 293 -300 q 136 -141 188 -244 q 85 114 85 -39 l 85 593 q 136 848 85 745 q 293 1007 188 951 z "},")":{"ha":367,"x_min":74,"x_max":282,"o":"m 74 1007 q 231 848 179 951 q 282 593 282 745 l 282 114 q 231 -141 282 -39 q 74 -300 179 -244 l 74 -191 q 160 -75 135 -142 q 186 131 186 -7 l 186 576 q 160 781 186 714 q 74 897 135 848 l 74 1007 z "},"*":{"ha":694,"x_min":85,"x_max":608,"o":"m 346 665 l 222 486 l 150 536 l 286 707 l 85 765 l 110 846 l 307 781 l 307 987 l 385 987 l 385 781 l 581 846 l 608 765 l 404 707 l 543 536 l 472 486 l 346 665 z "},"+":{"ha":1157,"x_min":172,"x_max":985,"o":"m 612 828 l 612 447 l 985 447 l 985 380 l 612 380 l 612 0 l 546 0 l 546 380 l 172 380 l 172 447 l 546 447 l 546 828 l 612 828 z "},",":{"ha":392,"x_min":71,"x_max":273,"o":"m 168 -110 l 71 -110 l 176 180 l 273 180 l 168 -110 z "},"-":{"ha":447,"x_min":64,"x_max":382,"o":"m 382 418 l 382 328 l 64 328 l 64 418 l 382 418 z "},".":{"ha":392,"x_min":147,"x_max":244,"o":"m 244 0 l 147 0 l 147 180 l 244 180 l 244 0 z "},"/":{"ha":386,"x_min":-33,"x_max":386,"o":"m 49 -129 l -33 -129 l 304 987 l 386 987 l 49 -129 z "},":":{"ha":399,"x_min":151,"x_max":248,"o":"m 248 566 l 151 566 l 151 746 l 248 746 l 248 566 m 248 0 l 151 0 l 151 180 l 248 180 l 248 0 z "},";":{"ha":399,"x_min":71,"x_max":273,"o":"m 168 -110 l 71 -110 l 176 180 l 273 180 l 168 -110 m 248 746 l 248 566 l 151 566 l 151 746 l 248 746 z "},"<":{"ha":1157,"x_min":179,"x_max":978,"o":"m 978 696 l 285 414 l 978 134 l 978 60 l 179 386 l 179 441 l 978 770 l 978 696 z "},"=":{"ha":1157,"x_min":172,"x_max":985,"o":"m 985 321 l 985 254 l 172 254 l 172 321 l 985 321 m 985 574 l 985 507 l 172 507 l 172 574 l 985 574 z "},">":{"ha":1157,"x_min":179,"x_max":978,"o":"m 978 441 l 978 386 l 179 60 l 179 134 l 872 414 l 179 696 l 179 770 l 978 441 z "},"?":{"ha":643,"x_min":31,"x_max":603,"o":"m 371 270 l 273 269 q 300 393 273 333 q 378 510 326 454 q 414 546 390 523 q 500 717 500 627 q 452 855 500 805 q 321 905 404 905 q 184 849 233 905 q 131 686 135 793 l 31 686 q 114 919 33 831 q 326 1007 195 1007 q 526 926 449 1007 q 603 715 603 844 q 490 488 603 589 q 473 473 479 479 q 395 375 418 422 q 371 270 372 329 m 273 0 l 273 180 l 371 180 l 371 0 l 273 0 z "},"@":{"ha":1389,"x_min":79,"x_max":1310,"o":"m 880 567 l 921 652 l 985 652 l 890 271 q 881 228 884 241 q 879 208 879 216 q 898 162 879 179 q 951 146 918 146 q 1024 160 987 146 q 1095 201 1061 174 q 1197 340 1160 254 q 1234 532 1234 427 q 1099 814 1234 704 q 754 925 965 925 q 537 891 635 925 q 359 790 439 858 q 209 593 260 705 q 158 347 158 481 q 199 140 158 229 q 323 -17 239 52 q 489 -104 393 -73 q 693 -135 585 -135 q 920 -101 809 -135 q 1124 -4 1031 -68 l 1150 -41 q 939 -154 1050 -117 q 707 -192 828 -192 q 471 -160 577 -192 q 285 -66 366 -129 q 130 119 180 14 q 79 364 79 224 q 138 623 79 503 q 309 836 196 743 q 511 948 398 910 q 755 986 624 986 q 964 956 865 986 q 1133 872 1063 926 q 1265 718 1221 805 q 1310 528 1310 630 q 1267 318 1310 412 q 1145 160 1225 224 q 1044 104 1097 123 q 935 85 990 85 q 837 110 869 85 q 804 187 804 136 q 805 197 804 190 q 806 207 806 203 q 720 116 771 148 q 606 85 668 85 q 448 141 502 85 q 393 307 393 198 q 485 570 393 463 q 708 677 576 677 q 815 650 772 677 q 880 567 859 622 m 821 318 l 863 486 q 811 585 850 549 q 717 621 772 621 q 544 530 612 621 q 476 301 476 439 q 513 184 476 226 q 616 142 551 142 q 745 190 689 142 q 821 318 801 239 z "},"A":{"ha":829,"x_min":-35,"x_max":847,"o":"m 68 0 l -35 0 l 349 987 l 465 987 l 847 0 l 743 0 l 625 310 l 186 310 l 68 0 m 591 399 l 404 895 l 220 399 l 591 399 z "},"B":{"ha":707,"x_min":92,"x_max":654,"o":"m 184 467 l 184 94 l 321 94 q 498 140 441 94 q 555 279 555 185 q 497 420 555 374 q 321 467 439 467 l 184 467 m 184 893 l 184 561 l 243 561 q 444 601 387 561 q 501 730 501 640 q 446 854 501 815 q 268 893 390 893 l 184 893 m 92 987 l 275 987 q 522 924 443 987 q 600 726 600 861 q 574 610 600 659 q 494 532 547 562 q 614 438 574 498 q 654 292 654 378 q 571 71 654 141 q 310 0 488 0 l 92 0 l 92 987 z "},"C":{"ha":1044,"x_min":41,"x_max":996,"o":"m 879 732 q 730 867 812 824 q 543 911 648 911 q 261 789 378 911 q 144 498 144 667 q 261 197 144 319 q 543 74 377 74 q 728 117 646 74 q 872 244 811 159 l 987 244 q 806 49 920 118 q 550 -20 692 -20 q 187 129 332 -20 q 41 500 41 277 q 81 696 41 604 q 196 864 120 789 q 354 971 267 935 q 545 1007 442 1007 q 809 935 692 1007 q 996 732 927 863 l 879 732 z "},"D":{"ha":926,"x_min":92,"x_max":885,"o":"m 187 893 l 187 93 l 389 93 q 679 199 577 93 q 781 498 781 304 q 746 677 781 595 q 647 815 711 760 q 539 875 599 857 q 366 893 479 893 l 187 893 m 92 987 l 372 987 q 567 964 488 987 q 707 890 646 941 q 838 716 791 819 q 885 496 885 613 q 833 257 885 365 q 688 82 782 150 q 553 19 625 38 q 329 0 480 0 l 92 0 l 92 987 z "},"E":{"ha":697,"x_min":92,"x_max":604,"o":"m 189 545 l 604 545 l 604 447 l 189 447 l 189 96 l 604 96 l 604 0 l 92 0 l 92 987 l 604 987 l 604 890 l 189 890 l 189 545 z "},"F":{"ha":672,"x_min":92,"x_max":579,"o":"m 92 0 l 92 987 l 579 987 l 579 890 l 187 890 l 187 545 l 579 545 l 579 447 l 187 447 l 187 0 l 92 0 z "},"G":{"ha":1093,"x_min":41,"x_max":1050,"o":"m 436 473 l 1050 473 q 895 119 1038 258 q 543 -20 751 -20 q 185 130 330 -20 q 41 500 41 279 q 81 696 41 604 q 196 864 120 789 q 358 972 269 937 q 555 1007 447 1007 q 813 938 699 1007 q 997 739 928 868 l 878 739 q 728 870 808 828 q 550 913 648 913 q 262 791 380 913 q 144 498 144 669 q 262 195 144 317 q 551 74 379 74 q 794 161 687 74 q 935 386 902 248 l 436 386 l 436 473 z "},"H":{"ha":848,"x_min":92,"x_max":755,"o":"m 189 0 l 92 0 l 92 987 l 189 987 l 189 545 l 659 545 l 659 987 l 755 987 l 755 0 l 659 0 l 659 450 l 189 450 l 189 0 z "},"I":{"ha":279,"x_min":90,"x_max":187,"o":"m 187 0 l 90 0 l 90 987 l 187 987 l 187 0 z "},"J":{"ha":621,"x_min":18,"x_max":532,"o":"m 435 987 l 532 987 l 532 322 q 523 186 532 235 q 492 102 513 138 q 398 11 458 43 q 264 -21 338 -21 q 86 51 153 -21 q 18 240 18 122 l 115 240 q 162 122 119 167 q 269 77 205 77 q 397 134 359 77 q 435 363 435 191 l 435 987 z "},"K":{"ha":746,"x_min":90,"x_max":758,"o":"m 186 304 l 186 0 l 90 0 l 90 987 l 186 987 l 186 439 l 643 987 l 758 987 l 359 510 l 751 0 l 632 0 l 297 437 l 186 304 z "},"L":{"ha":572,"x_min":92,"x_max":536,"o":"m 536 0 l 92 0 l 92 987 l 189 987 l 189 96 l 536 96 l 536 0 z "},"M":{"ha":1147,"x_min":97,"x_max":1065,"o":"m 97 0 l 97 987 l 240 987 l 582 129 l 922 987 l 1065 987 l 1065 0 l 972 0 l 972 872 l 625 0 l 538 0 l 191 872 l 191 0 l 97 0 z "},"N":{"ha":926,"x_min":89,"x_max":832,"o":"m 747 118 l 736 987 l 832 987 l 832 0 l 715 0 l 174 871 l 184 0 l 89 0 l 89 987 l 205 987 l 747 118 z "},"O":{"ha":1093,"x_min":41,"x_max":1050,"o":"m 143 498 q 260 196 143 318 q 550 74 378 74 q 834 197 718 74 q 950 501 950 321 q 831 791 950 669 q 543 913 711 913 q 411 889 475 913 q 294 821 348 866 q 183 675 224 761 q 143 498 143 589 m 41 500 q 81 696 41 603 q 196 864 121 790 q 356 971 269 935 q 545 1007 443 1007 q 737 971 648 1007 q 899 863 825 935 q 1012 697 974 789 q 1050 500 1050 606 q 1017 307 1050 395 q 920 147 985 219 q 749 22 844 64 q 543 -20 654 -20 q 186 130 330 -20 q 41 500 41 279 z "},"P":{"ha":701,"x_min":81,"x_max":660,"o":"m 178 890 l 178 514 l 321 514 q 497 559 440 514 q 554 700 554 605 q 497 845 554 799 q 313 890 439 890 l 178 890 m 81 987 l 290 987 q 435 978 380 987 q 525 947 489 968 q 625 845 590 908 q 660 704 660 783 q 628 566 660 629 q 541 465 597 503 q 447 427 501 439 q 307 415 392 415 l 178 415 l 178 0 l 81 0 l 81 987 z "},"Q":{"ha":1093,"x_min":41,"x_max":1061,"o":"m 890 118 q 959 89 921 98 q 1048 79 996 79 l 1061 79 l 1061 -7 q 1053 -7 1058 -7 q 1013 -9 1023 -9 q 913 8 966 -9 q 814 60 861 26 q 686 0 753 20 q 545 -20 618 -20 q 187 130 333 -20 q 41 500 41 279 q 81 696 41 603 q 196 864 121 790 q 356 971 269 935 q 545 1007 443 1007 q 906 859 762 1007 q 1050 484 1050 711 q 1010 284 1050 374 q 890 118 971 194 m 815 179 q 916 327 881 245 q 950 501 950 410 q 831 791 950 669 q 543 913 711 913 q 262 790 380 913 q 143 504 143 667 q 147 440 143 472 q 160 376 151 409 q 264 413 213 401 q 371 425 315 425 q 585 373 487 425 q 815 179 683 320 m 736 121 q 534 291 611 251 q 361 332 457 332 q 282 321 322 332 q 193 289 241 311 q 344 130 249 187 q 550 72 439 72 q 641 84 595 72 q 736 121 686 96 z "},"R":{"ha":772,"x_min":78,"x_max":708,"o":"m 174 890 l 174 0 l 78 0 l 78 987 l 343 987 q 484 974 431 987 q 581 930 537 961 q 674 820 640 889 q 708 673 708 751 q 640 476 708 559 q 469 386 572 393 l 708 0 l 593 0 l 300 476 l 393 476 q 546 531 487 476 q 604 672 604 586 q 586 767 604 724 q 533 842 568 810 q 463 879 504 868 q 317 890 422 890 l 174 890 z "},"S":{"ha":646,"x_min":39,"x_max":599,"o":"m 39 282 l 133 282 q 185 136 136 191 q 314 82 234 82 q 451 136 400 82 q 501 282 501 190 q 294 485 501 416 q 269 493 277 490 q 113 588 161 530 q 65 737 65 645 q 139 930 65 855 q 329 1006 212 1006 q 505 937 440 1006 q 578 745 570 869 l 486 745 q 438 869 479 825 q 329 913 397 913 q 209 865 256 913 q 163 743 163 817 q 177 676 163 705 q 221 625 191 648 q 340 574 252 602 q 418 547 391 557 q 556 452 514 510 q 599 300 599 394 q 520 68 599 156 q 313 -20 442 -20 q 117 63 192 -20 q 39 282 41 146 z "},"T":{"ha":509,"x_min":8,"x_max":500,"o":"m 302 0 l 205 0 l 205 890 l 8 890 l 8 987 l 500 987 l 500 890 l 302 890 l 302 0 z "},"U":{"ha":785,"x_min":77,"x_max":707,"o":"m 77 987 l 174 987 l 174 363 q 179 254 174 290 q 199 191 185 218 q 276 102 225 134 q 392 71 328 71 q 557 147 504 71 q 611 383 611 223 l 611 987 l 707 987 l 707 359 q 630 73 707 168 q 399 -21 554 -21 q 155 71 233 -21 q 77 359 77 163 l 77 987 z "},"V":{"ha":772,"x_min":-28,"x_max":793,"o":"m -28 987 l 69 987 l 382 146 l 696 987 l 793 987 l 421 0 l 345 0 l -28 987 z "},"W":{"ha":1129,"x_min":-21,"x_max":1150,"o":"m 610 987 l 808 178 l 1055 987 l 1150 987 l 844 0 l 764 0 l 566 806 l 367 0 l 286 0 l -21 987 l 75 987 l 321 178 l 521 987 l 610 987 z "},"X":{"ha":790,"x_min":-4,"x_max":794,"o":"m 115 0 l -4 0 l 339 497 l 4 987 l 125 987 l 396 578 l 667 987 l 786 987 l 452 497 l 794 0 l 672 0 l 396 419 l 115 0 z "},"Y":{"ha":665,"x_min":-33,"x_max":694,"o":"m 378 363 l 378 0 l 282 0 l 282 364 l -33 987 l 78 987 l 330 475 l 586 987 l 694 987 l 378 363 z "},"Z":{"ha":636,"x_min":26,"x_max":610,"o":"m 488 890 l 54 890 l 54 987 l 600 987 l 600 895 l 138 96 l 610 96 l 610 0 l 26 0 l 26 93 l 488 890 z "},"[":{"ha":367,"x_min":90,"x_max":315,"o":"m 315 -199 l 315 -278 l 90 -278 l 90 987 l 315 987 l 315 907 l 186 907 l 186 -199 l 315 -199 z "},"\\":{"ha":386,"x_min":0,"x_max":419,"o":"m 338 -129 l 0 987 l 81 987 l 419 -129 l 338 -129 z "},"]":{"ha":367,"x_min":52,"x_max":277,"o":"m 52 -199 l 180 -199 l 180 907 l 52 907 l 52 987 l 277 987 l 277 -278 l 52 -278 l 52 -199 z "},"^":{"ha":1389,"x_min":286,"x_max":1101,"o":"m 742 989 l 1101 611 l 1004 611 l 694 920 l 383 611 l 286 611 l 647 989 l 742 989 z "},"_":{"ha":694,"x_min":0,"x_max":694,"o":"m 694 -260 l 694 -328 l 0 -328 l 0 -260 l 694 -260 z "},"`":{"ha":694,"x_min":187,"x_max":432,"o":"m 370 846 l 187 1083 l 290 1083 l 432 846 l 370 846 z "},"a":{"ha":875,"x_min":39,"x_max":800,"o":"m 707 378 q 622 585 707 496 q 427 673 537 673 q 222 585 307 673 q 138 366 138 496 q 222 155 138 241 q 424 69 306 69 q 622 160 538 69 q 707 378 707 250 m 707 118 q 586 17 662 54 q 421 -20 509 -20 q 148 93 257 -20 q 39 370 39 205 q 150 650 39 537 q 429 762 262 762 q 587 727 515 762 q 707 627 659 692 l 707 746 l 800 746 l 800 0 l 707 0 l 707 118 z "},"b":{"ha":875,"x_min":74,"x_max":836,"o":"m 168 987 l 168 676 l 168 621 q 300 728 229 693 q 461 762 372 762 q 727 649 618 762 q 836 374 836 536 q 725 93 836 206 q 446 -20 614 -20 q 294 13 363 -20 q 168 113 225 46 l 168 0 l 74 0 l 74 987 l 168 987 m 168 366 q 253 158 168 246 q 447 69 337 69 q 651 158 567 69 q 736 378 736 247 q 652 588 736 502 q 450 673 568 673 q 251 584 333 673 q 168 366 168 494 z "},"c":{"ha":842,"x_min":39,"x_max":779,"o":"m 673 517 q 566 637 629 598 q 415 676 503 676 q 219 589 300 676 q 139 372 139 501 q 220 157 139 243 q 419 71 300 71 q 572 113 506 71 q 673 233 639 156 l 779 233 q 643 45 736 112 q 424 -21 550 -21 q 150 94 262 -21 q 39 371 39 209 q 152 651 39 536 q 427 766 264 766 q 641 701 548 766 q 779 517 733 635 l 673 517 z "},"d":{"ha":875,"x_min":39,"x_max":800,"o":"m 707 366 q 622 583 707 493 q 424 673 538 673 q 222 588 306 673 q 138 378 138 502 q 222 158 138 247 q 427 69 307 69 q 622 158 537 69 q 707 366 707 247 m 704 628 l 704 794 l 704 987 l 800 987 l 800 0 l 704 0 l 704 113 q 579 15 654 50 q 421 -20 505 -20 q 149 94 260 -20 q 39 374 39 208 q 148 650 39 538 q 421 762 257 762 q 582 728 509 762 q 704 628 654 694 z "},"e":{"ha":842,"x_min":36,"x_max":808,"o":"m 808 343 l 135 343 q 223 146 144 221 q 421 71 302 71 q 572 114 505 71 q 676 236 640 158 l 785 236 q 640 45 733 112 q 424 -21 547 -21 q 149 95 261 -21 q 36 374 36 211 q 146 655 36 544 q 428 766 256 766 q 702 651 596 766 q 808 350 808 535 l 808 343 m 703 424 q 603 613 675 549 q 414 676 530 676 q 230 608 305 676 q 138 424 155 540 l 703 424 z "},"f":{"ha":382,"x_min":17,"x_max":366,"o":"m 210 0 l 117 0 l 117 663 l 17 663 l 17 746 l 113 746 l 113 766 q 173 942 113 885 q 357 999 233 999 l 366 999 l 366 913 q 244 879 279 911 q 208 766 208 846 l 208 746 l 366 746 l 366 663 l 210 663 l 210 0 z "},"g":{"ha":868,"x_min":36,"x_max":796,"o":"m 204 -61 q 283 -162 226 -126 q 421 -199 340 -199 q 626 -114 549 -199 q 703 113 703 -29 l 703 132 q 579 21 648 58 q 427 -17 510 -17 q 147 95 258 -17 q 36 375 36 208 q 146 652 36 540 q 418 764 256 764 q 581 730 512 764 q 703 624 650 696 l 703 746 l 796 746 l 796 123 q 698 -182 796 -72 q 428 -292 600 -292 q 210 -229 301 -292 q 93 -61 119 -166 l 204 -61 m 138 379 q 221 160 138 248 q 421 72 304 72 q 616 160 532 72 q 701 368 701 249 q 618 586 701 496 q 421 676 534 676 q 221 590 304 676 q 138 379 138 505 z "},"h":{"ha":775,"x_min":75,"x_max":700,"o":"m 75 987 l 170 987 l 170 659 q 269 735 211 709 q 399 761 327 761 q 628 671 556 761 q 700 379 700 581 l 700 0 l 606 0 l 606 380 q 557 606 606 543 q 393 669 508 669 q 279 643 328 669 q 201 568 230 617 q 177 499 184 538 q 170 363 170 460 l 170 0 l 75 0 l 75 987 z "},"i":{"ha":252,"x_min":78,"x_max":174,"o":"m 174 833 l 78 833 l 78 987 l 174 987 l 174 833 m 78 0 l 78 746 l 174 746 l 174 0 l 78 0 z "},"j":{"ha":252,"x_min":-14,"x_max":174,"o":"m 174 833 l 78 833 l 78 987 l 174 987 l 174 833 m 174 746 l 174 -3 q 136 -189 174 -138 q 7 -240 98 -240 l -14 -240 l -14 -151 q 59 -131 40 -151 q 78 -17 78 -111 l 78 746 l 174 746 z "},"k":{"ha":575,"x_min":78,"x_max":611,"o":"m 174 0 l 78 0 l 78 987 l 174 987 l 174 400 l 443 746 l 553 746 l 282 400 l 611 0 l 490 0 l 174 389 l 174 0 z "},"l":{"ha":252,"x_min":78,"x_max":174,"o":"m 78 0 l 78 987 l 174 987 l 174 0 l 78 0 z "},"m":{"ha":1293,"x_min":75,"x_max":1217,"o":"m 663 629 q 775 727 708 694 q 926 761 843 761 q 1147 670 1078 761 q 1217 376 1217 578 l 1217 0 l 1125 0 l 1125 396 q 1076 607 1125 544 q 917 669 1027 669 q 805 643 853 669 q 728 568 756 617 q 703 499 711 538 q 696 363 696 460 l 696 0 l 606 0 l 606 418 q 553 608 606 547 q 393 669 501 669 q 279 643 328 669 q 201 568 230 617 q 177 499 184 538 q 170 363 170 460 l 170 0 l 75 0 l 75 746 l 170 746 l 170 661 q 270 736 212 711 q 401 761 328 761 q 556 725 486 761 q 663 629 626 690 z "},"n":{"ha":775,"x_min":77,"x_max":700,"o":"m 77 746 l 170 746 l 170 661 q 272 736 214 712 q 404 761 330 761 q 550 730 486 761 q 652 643 614 700 q 689 549 677 603 q 700 390 700 495 l 700 0 l 606 0 l 606 418 q 555 610 606 550 q 393 669 505 669 q 279 643 328 669 q 201 568 230 617 q 177 499 184 538 q 170 363 170 460 l 170 0 l 77 0 l 77 746 z "},"o":{"ha":842,"x_min":36,"x_max":806,"o":"m 136 374 q 218 158 136 245 q 422 71 300 71 q 624 158 543 71 q 705 375 705 245 q 623 592 705 507 q 414 677 541 677 q 218 590 300 677 q 136 374 136 503 m 36 372 q 149 653 36 536 q 415 770 261 770 q 691 655 577 770 q 806 382 806 541 q 694 97 806 215 q 422 -21 582 -21 q 148 95 260 -21 q 36 372 36 210 z "},"p":{"ha":875,"x_min":74,"x_max":836,"o":"m 74 746 l 168 746 l 168 624 q 284 725 209 687 q 446 762 360 762 q 725 650 614 762 q 836 370 836 538 q 727 93 836 205 q 453 -20 617 -20 q 289 16 362 -20 q 168 118 216 51 l 168 66 l 168 -45 l 168 -241 l 74 -241 l 74 746 m 168 378 q 252 160 168 250 q 450 69 336 69 q 652 155 568 69 q 736 366 736 241 q 651 585 736 496 q 447 673 567 673 q 252 585 336 673 q 168 378 168 496 z "},"q":{"ha":875,"x_min":39,"x_max":800,"o":"m 704 746 l 800 746 l 800 -241 l 704 -241 l 704 113 q 583 15 656 50 q 421 -20 509 -20 q 148 93 257 -20 q 39 370 39 205 q 150 650 39 537 q 429 762 262 762 q 585 727 514 762 q 704 627 656 692 l 704 746 m 707 378 q 622 585 707 496 q 427 673 537 673 q 222 585 307 673 q 138 366 138 496 q 222 155 138 241 q 424 69 306 69 q 622 160 538 69 q 707 378 707 250 z "},"r":{"ha":347,"x_min":75,"x_max":340,"o":"m 172 0 l 75 0 l 75 746 l 165 746 l 165 660 q 242 732 201 709 q 340 757 284 755 l 340 653 q 211 599 250 645 q 172 450 172 553 l 172 0 z "},"s":{"ha":541,"x_min":29,"x_max":503,"o":"m 29 235 l 127 235 l 127 232 q 168 116 127 162 q 267 71 208 71 q 360 106 323 71 q 397 195 397 141 q 368 281 397 248 q 261 342 338 313 q 99 432 137 386 q 61 555 61 478 q 124 704 61 643 q 278 765 188 765 q 430 711 374 765 q 490 559 486 656 l 388 559 q 354 642 385 612 q 272 671 324 671 q 194 639 225 671 q 163 561 163 608 q 176 505 163 528 q 218 464 189 482 q 297 431 245 447 q 367 408 349 416 q 470 329 437 378 q 503 203 503 279 q 435 43 503 106 q 265 -20 368 -20 q 96 49 160 -20 q 29 235 33 118 z "},"t":{"ha":379,"x_min":0,"x_max":379,"o":"m 142 0 l 142 650 l 0 650 l 0 746 l 142 746 l 142 987 l 237 987 l 237 746 l 379 746 l 379 650 l 237 650 l 237 0 l 142 0 z "},"u":{"ha":775,"x_min":74,"x_max":700,"o":"m 74 746 l 168 746 l 168 350 q 218 134 168 197 q 380 71 267 71 q 494 97 445 71 q 572 172 543 123 q 597 241 589 201 q 604 379 604 281 l 604 746 l 700 746 l 700 0 l 604 0 l 604 81 q 507 4 561 28 q 378 -20 454 -20 q 145 67 216 -20 q 74 357 74 155 l 74 746 z "},"v":{"ha":663,"x_min":-11,"x_max":673,"o":"m 368 0 l 281 0 l -11 746 l 90 746 l 329 144 l 570 746 l 673 746 l 368 0 z "},"w":{"ha":964,"x_min":-4,"x_max":971,"o":"m 689 187 l 869 746 l 971 746 l 720 0 l 657 0 l 482 568 l 310 0 l 248 0 l -4 746 l 96 746 l 278 187 l 449 746 l 518 746 l 689 187 z "},"x":{"ha":575,"x_min":-21,"x_max":586,"o":"m 117 746 l 290 464 l 476 746 l 586 746 l 345 389 l 585 0 l 476 0 l 285 311 l 85 0 l -21 0 l 232 387 l 9 746 l 117 746 z "},"y":{"ha":640,"x_min":-22,"x_max":671,"o":"m -22 746 l 87 746 l 318 140 l 559 746 l 671 746 l 268 -241 l 165 -241 l 265 1 l -22 746 z "},"z":{"ha":559,"x_min":14,"x_max":529,"o":"m 529 0 l 14 0 l 14 90 l 403 656 l 57 656 l 57 746 l 509 746 l 509 643 l 127 96 l 529 96 l 529 0 z "},"{":{"ha":694,"x_min":118,"x_max":579,"o":"m 579 929 l 554 929 q 434 896 465 929 q 403 757 403 862 l 403 593 q 373 430 403 479 q 269 359 344 381 q 373 290 344 338 q 403 126 403 241 l 403 -37 q 433 -176 403 -142 q 549 -210 464 -210 q 564 -209 553 -210 q 579 -208 574 -208 l 579 -281 l 547 -281 q 367 -232 414 -281 q 319 -31 319 -182 l 319 135 q 281 282 319 239 q 149 325 242 325 q 134 324 144 325 q 118 323 124 323 l 118 397 q 134 397 124 397 q 149 396 144 396 q 281 439 242 396 q 319 586 319 481 l 319 750 q 367 951 319 901 q 547 1002 414 1002 l 579 1002 l 579 929 z "},"|":{"ha":694,"x_min":311,"x_max":385,"o":"m 385 1061 l 385 -328 l 311 -328 l 311 1061 l 385 1061 z "},"}":{"ha":694,"x_min":117,"x_max":578,"o":"m 376 750 l 376 586 q 415 439 376 481 q 547 396 454 396 q 562 397 552 396 q 578 397 572 397 l 578 323 q 562 324 572 323 q 547 325 552 325 q 415 282 454 325 q 376 135 376 239 l 376 -31 q 329 -231 376 -182 q 149 -281 282 -281 l 117 -281 l 117 -208 l 143 -208 q 262 -175 231 -208 q 293 -37 293 -142 l 293 126 q 322 290 293 242 q 427 359 351 338 q 322 429 351 381 q 293 593 293 477 l 293 757 q 262 897 293 863 q 147 930 232 930 q 132 930 142 930 q 117 929 122 929 l 117 1002 l 149 1002 q 329 951 281 1002 q 376 750 376 901 z "},"~":{"ha":1157,"x_min":121,"x_max":1038,"o":"m 1038 432 q 903 359 968 383 q 775 335 838 335 q 599 374 708 335 q 579 380 585 378 l 568 385 q 383 428 449 428 q 264 402 327 428 q 121 319 202 376 l 121 396 q 258 470 193 446 q 383 494 323 494 q 568 453 454 494 q 580 448 575 450 q 601 441 586 446 q 775 400 714 400 q 895 426 833 400 q 1038 509 958 452 l 1038 432 z "},"Ä":{"ha":829,"x_min":-35,"x_max":847,"o":"m 68 0 l -35 0 l 349 987 l 465 987 l 847 0 l 743 0 l 625 310 l 186 310 l 68 0 m 591 399 l 404 895 l 220 399 l 591 399 m 482 1128 l 482 1239 l 579 1239 l 579 1128 l 482 1128 m 232 1128 l 232 1239 l 328 1239 l 328 1128 l 232 1128 z "},"Å":{"ha":829,"x_min":-35,"x_max":847,"o":"m 313 1182 q 340 1114 313 1142 q 408 1086 368 1086 q 477 1114 449 1086 q 505 1182 505 1142 q 476 1251 505 1222 q 408 1280 448 1280 q 341 1252 369 1280 q 313 1182 313 1223 m 252 1182 q 297 1292 252 1246 q 407 1337 342 1337 q 517 1292 471 1337 q 562 1182 562 1246 q 517 1072 562 1118 q 407 1026 471 1026 q 297 1072 342 1026 q 252 1182 252 1117 m 591 399 l 404 895 l 220 399 l 591 399 m 68 0 l -35 0 l 349 987 l 465 987 l 847 0 l 743 0 l 625 310 l 186 310 l 68 0 z "},"Ç":{"ha":1044,"x_min":41,"x_max":996,"o":"m 879 732 q 730 867 812 824 q 543 911 648 911 q 261 789 378 911 q 144 498 144 667 q 261 197 144 319 q 543 74 377 74 q 728 117 646 74 q 872 244 811 159 l 987 244 q 806 49 920 118 q 550 -20 692 -20 q 187 129 332 -20 q 41 500 41 277 q 81 696 41 604 q 196 864 120 789 q 354 971 267 935 q 545 1007 442 1007 q 809 935 692 1007 q 996 732 927 863 l 879 732 m 543 -75 l 557 -75 q 668 -105 629 -75 q 706 -192 706 -135 q 666 -280 706 -249 q 551 -311 626 -311 q 472 -305 513 -311 q 380 -285 432 -299 l 380 -232 q 479 -251 443 -245 q 542 -256 515 -256 q 607 -240 585 -256 q 629 -195 629 -225 q 606 -140 629 -157 q 532 -123 583 -123 q 513 -124 519 -123 q 500 -125 507 -124 l 500 0 l 543 0 l 543 -75 z "},"É":{"ha":697,"x_min":92,"x_max":604,"o":"m 189 545 l 604 545 l 604 447 l 189 447 l 189 96 l 604 96 l 604 0 l 92 0 l 92 987 l 604 987 l 604 890 l 189 890 l 189 545 m 336 1083 l 273 1083 l 415 1320 l 518 1320 l 336 1083 z "},"Ñ":{"ha":926,"x_min":89,"x_max":832,"o":"m 747 118 l 736 987 l 832 987 l 832 0 l 715 0 l 174 871 l 184 0 l 89 0 l 89 987 l 205 987 l 747 118 m 660 1254 q 610 1161 642 1192 q 530 1129 577 1129 q 510 1131 521 1129 q 486 1136 499 1133 l 420 1157 q 402 1161 410 1160 q 385 1162 393 1162 q 348 1149 364 1162 q 322 1112 332 1137 l 268 1112 q 316 1205 282 1173 q 400 1238 351 1238 q 420 1236 411 1238 q 436 1232 429 1234 l 501 1211 q 520 1206 510 1208 q 539 1204 530 1204 q 577 1216 562 1204 q 604 1254 593 1227 l 660 1254 z "},"Ö":{"ha":1093,"x_min":41,"x_max":1050,"o":"m 143 498 q 260 196 143 318 q 550 74 378 74 q 834 197 718 74 q 950 501 950 321 q 831 791 950 669 q 543 913 711 913 q 411 889 475 913 q 294 821 348 866 q 183 675 224 761 q 143 498 143 589 m 41 500 q 81 696 41 603 q 196 864 121 790 q 356 971 269 935 q 545 1007 443 1007 q 737 971 648 1007 q 899 863 825 935 q 1012 697 974 789 q 1050 500 1050 606 q 1017 307 1050 395 q 920 147 985 219 q 749 22 844 64 q 543 -20 654 -20 q 186 130 330 -20 q 41 500 41 279 m 624 1128 l 624 1239 l 721 1239 l 721 1128 l 624 1128 m 374 1128 l 374 1239 l 469 1239 l 469 1128 l 374 1128 z "},"Ü":{"ha":785,"x_min":77,"x_max":707,"o":"m 77 987 l 174 987 l 174 363 q 179 254 174 290 q 199 191 185 218 q 276 102 225 134 q 392 71 328 71 q 557 147 504 71 q 611 383 611 223 l 611 987 l 707 987 l 707 359 q 630 73 707 168 q 399 -21 554 -21 q 155 71 233 -21 q 77 359 77 163 l 77 987 m 470 1128 l 470 1239 l 567 1239 l 567 1128 l 470 1128 m 220 1128 l 220 1239 l 315 1239 l 315 1128 l 220 1128 z "},"á":{"ha":875,"x_min":39,"x_max":800,"o":"m 707 378 q 622 585 707 496 q 427 673 537 673 q 222 585 307 673 q 138 366 138 496 q 222 155 138 241 q 424 69 306 69 q 622 160 538 69 q 707 378 707 250 m 707 118 q 586 17 662 54 q 421 -20 509 -20 q 148 93 257 -20 q 39 370 39 205 q 150 650 39 537 q 429 762 262 762 q 587 727 515 762 q 707 627 659 692 l 707 746 l 800 746 l 800 0 l 707 0 l 707 118 m 408 846 l 346 846 l 488 1083 l 591 1083 l 408 846 z "},"à":{"ha":875,"x_min":39,"x_max":800,"o":"m 707 378 q 622 585 707 496 q 427 673 537 673 q 222 585 307 673 q 138 366 138 496 q 222 155 138 241 q 424 69 306 69 q 622 160 538 69 q 707 378 707 250 m 707 118 q 586 17 662 54 q 421 -20 509 -20 q 148 93 257 -20 q 39 370 39 205 q 150 650 39 537 q 429 762 262 762 q 587 727 515 762 q 707 627 659 692 l 707 746 l 800 746 l 800 0 l 707 0 l 707 118 m 453 846 l 271 1083 l 374 1083 l 515 846 l 453 846 z "},"â":{"ha":875,"x_min":39,"x_max":800,"o":"m 707 378 q 622 585 707 496 q 427 673 537 673 q 222 585 307 673 q 138 366 138 496 q 222 155 138 241 q 424 69 306 69 q 622 160 538 69 q 707 378 707 250 m 707 118 q 586 17 662 54 q 421 -20 509 -20 q 148 93 257 -20 q 39 370 39 205 q 150 650 39 537 q 429 762 262 762 q 587 727 515 762 q 707 627 659 692 l 707 746 l 800 746 l 800 0 l 707 0 l 707 118 m 243 846 l 379 1083 l 482 1083 l 618 846 l 555 846 l 431 1025 l 306 846 l 243 846 z "},"ä":{"ha":875,"x_min":39,"x_max":800,"o":"m 707 378 q 622 585 707 496 q 427 673 537 673 q 222 585 307 673 q 138 366 138 496 q 222 155 138 241 q 424 69 306 69 q 622 160 538 69 q 707 378 707 250 m 707 118 q 586 17 662 54 q 421 -20 509 -20 q 148 93 257 -20 q 39 370 39 205 q 150 650 39 537 q 429 762 262 762 q 587 727 515 762 q 707 627 659 692 l 707 746 l 800 746 l 800 0 l 707 0 l 707 118 m 507 890 l 507 1002 l 604 1002 l 604 890 l 507 890 m 257 890 l 257 1002 l 353 1002 l 353 890 l 257 890 z "},"ã":{"ha":875,"x_min":39,"x_max":800,"o":"m 707 378 q 622 585 707 496 q 427 673 537 673 q 222 585 307 673 q 138 366 138 496 q 222 155 138 241 q 424 69 306 69 q 622 160 538 69 q 707 378 707 250 m 707 118 q 586 17 662 54 q 421 -20 509 -20 q 148 93 257 -20 q 39 370 39 205 q 150 650 39 537 q 429 762 262 762 q 587 727 515 762 q 707 627 659 692 l 707 746 l 800 746 l 800 0 l 707 0 l 707 118 m 627 1017 q 576 923 609 955 q 497 892 544 892 q 477 893 488 892 q 453 899 466 895 l 387 920 q 369 924 377 922 q 351 925 360 925 q 315 912 331 925 q 289 875 299 899 l 235 875 q 283 968 249 936 q 367 1000 317 1000 q 387 999 378 1000 q 403 994 395 997 l 468 974 q 487 968 477 970 q 506 966 497 966 q 544 978 528 966 q 571 1017 559 990 l 627 1017 z "},"å":{"ha":875,"x_min":39,"x_max":800,"o":"m 343 958 q 371 890 343 918 q 439 861 399 861 q 508 890 479 861 q 536 958 536 918 q 508 1026 536 998 q 439 1055 479 1055 q 371 1027 399 1055 q 343 958 343 999 m 282 957 q 328 1067 282 1021 q 437 1112 373 1112 q 549 1067 503 1112 q 595 957 595 1021 q 549 847 595 892 q 437 802 503 802 q 327 847 372 802 q 282 957 282 892 m 707 118 q 586 17 662 54 q 421 -20 509 -20 q 148 93 257 -20 q 39 370 39 205 q 150 650 39 537 q 429 762 262 762 q 587 727 515 762 q 707 627 659 692 l 707 746 l 800 746 l 800 0 l 707 0 l 707 118 m 707 378 q 622 585 707 496 q 427 673 537 673 q 222 585 307 673 q 138 366 138 496 q 222 155 138 241 q 424 69 306 69 q 622 160 538 69 q 707 378 707 250 z "},"ç":{"ha":842,"x_min":39,"x_max":779,"o":"m 673 517 q 566 637 629 598 q 415 676 503 676 q 219 589 300 676 q 139 372 139 501 q 220 157 139 243 q 419 71 300 71 q 572 113 506 71 q 673 233 639 156 l 779 233 q 643 45 736 112 q 424 -21 550 -21 q 150 94 262 -21 q 39 371 39 209 q 152 651 39 536 q 427 766 264 766 q 641 701 548 766 q 779 517 733 635 l 673 517 m 421 -75 l 435 -75 q 546 -105 507 -75 q 584 -192 584 -135 q 544 -280 584 -249 q 429 -311 504 -311 q 350 -305 391 -311 q 258 -285 310 -299 l 258 -232 q 357 -251 321 -245 q 420 -256 393 -256 q 485 -240 463 -256 q 507 -195 507 -225 q 484 -140 507 -157 q 410 -123 460 -123 q 391 -124 397 -123 q 378 -125 385 -124 l 378 0 l 421 0 l 421 -75 z "},"é":{"ha":842,"x_min":36,"x_max":808,"o":"m 808 343 l 135 343 q 223 146 144 221 q 421 71 302 71 q 572 114 505 71 q 676 236 640 158 l 785 236 q 640 45 733 112 q 424 -21 547 -21 q 149 95 261 -21 q 36 374 36 211 q 146 655 36 544 q 428 766 256 766 q 702 651 596 766 q 808 350 808 535 l 808 343 m 703 424 q 603 613 675 549 q 414 676 530 676 q 230 608 305 676 q 138 424 155 540 l 703 424 m 407 846 l 345 846 l 486 1083 l 589 1083 l 407 846 z "},"è":{"ha":842,"x_min":36,"x_max":808,"o":"m 808 343 l 135 343 q 223 146 144 221 q 421 71 302 71 q 572 114 505 71 q 676 236 640 158 l 785 236 q 640 45 733 112 q 424 -21 547 -21 q 149 95 261 -21 q 36 374 36 211 q 146 655 36 544 q 428 766 256 766 q 702 651 596 766 q 808 350 808 535 l 808 343 m 703 424 q 603 613 675 549 q 414 676 530 676 q 230 608 305 676 q 138 424 155 540 l 703 424 m 452 846 l 269 1083 l 372 1083 l 514 846 l 452 846 z "},"ê":{"ha":842,"x_min":36,"x_max":808,"o":"m 808 343 l 135 343 q 223 146 144 221 q 421 71 302 71 q 572 114 505 71 q 676 236 640 158 l 785 236 q 640 45 733 112 q 424 -21 547 -21 q 149 95 261 -21 q 36 374 36 211 q 146 655 36 544 q 428 766 256 766 q 702 651 596 766 q 808 350 808 535 l 808 343 m 703 424 q 603 613 675 549 q 414 676 530 676 q 230 608 305 676 q 138 424 155 540 l 703 424 m 242 846 l 378 1083 l 481 1083 l 616 846 l 554 846 l 429 1025 l 304 846 l 242 846 z "},"ë":{"ha":842,"x_min":36,"x_max":808,"o":"m 808 343 l 135 343 q 223 146 144 221 q 421 71 302 71 q 572 114 505 71 q 676 236 640 158 l 785 236 q 640 45 733 112 q 424 -21 547 -21 q 149 95 261 -21 q 36 374 36 211 q 146 655 36 544 q 428 766 256 766 q 702 651 596 766 q 808 350 808 535 l 808 343 m 703 424 q 603 613 675 549 q 414 676 530 676 q 230 608 305 676 q 138 424 155 540 l 703 424 m 506 890 l 506 1002 l 603 1002 l 603 890 l 506 890 m 256 890 l 256 1002 l 351 1002 l 351 890 l 256 890 z "},"í":{"ha":252,"x_min":41,"x_max":286,"o":"m 78 0 l 78 746 l 174 746 l 174 0 l 78 0 m 104 846 l 41 846 l 183 1083 l 286 1083 l 104 846 z "},"ì":{"ha":252,"x_min":-34,"x_max":211,"o":"m 78 0 l 78 746 l 174 746 l 174 0 l 78 0 m 149 846 l -34 1083 l 69 1083 l 211 846 l 149 846 z "},"î":{"ha":252,"x_min":-61,"x_max":313,"o":"m 78 0 l 78 746 l 174 746 l 174 0 l 78 0 m -61 846 l 75 1083 l 178 1083 l 313 846 l 251 846 l 126 1025 l 1 846 l -61 846 z "},"ï":{"ha":252,"x_min":-47,"x_max":300,"o":"m 78 0 l 78 746 l 174 746 l 174 0 l 78 0 m 203 890 l 203 1002 l 300 1002 l 300 890 l 203 890 m -47 890 l -47 1002 l 48 1002 l 48 890 l -47 890 z "},"ñ":{"ha":775,"x_min":77,"x_max":700,"o":"m 77 746 l 170 746 l 170 661 q 272 736 214 712 q 404 761 330 761 q 550 730 486 761 q 652 643 614 700 q 689 549 677 603 q 700 390 700 495 l 700 0 l 606 0 l 606 418 q 555 610 606 550 q 393 669 505 669 q 279 643 328 669 q 201 568 230 617 q 177 499 184 538 q 170 363 170 460 l 170 0 l 77 0 l 77 746 m 592 1017 q 542 923 574 955 q 463 892 509 892 q 442 893 453 892 q 418 899 431 895 l 353 920 q 334 924 342 922 q 317 925 326 925 q 280 912 296 925 q 254 875 264 899 l 200 875 q 249 968 214 936 q 332 1000 283 1000 q 352 999 343 1000 q 368 994 361 997 l 433 974 q 452 968 442 970 q 471 966 463 966 q 509 978 494 966 q 536 1017 525 990 l 592 1017 z "},"ó":{"ha":842,"x_min":36,"x_max":806,"o":"m 136 374 q 218 158 136 245 q 422 71 300 71 q 624 158 543 71 q 705 375 705 245 q 623 592 705 507 q 414 677 541 677 q 218 590 300 677 q 136 374 136 503 m 36 372 q 149 653 36 536 q 415 770 261 770 q 691 655 577 770 q 806 382 806 541 q 694 97 806 215 q 422 -21 582 -21 q 148 95 260 -21 q 36 372 36 210 m 406 846 l 343 846 l 485 1083 l 588 1083 l 406 846 z "},"ò":{"ha":842,"x_min":36,"x_max":806,"o":"m 136 374 q 218 158 136 245 q 422 71 300 71 q 624 158 543 71 q 705 375 705 245 q 623 592 705 507 q 414 677 541 677 q 218 590 300 677 q 136 374 136 503 m 36 372 q 149 653 36 536 q 415 770 261 770 q 691 655 577 770 q 806 382 806 541 q 694 97 806 215 q 422 -21 582 -21 q 148 95 260 -21 q 36 372 36 210 m 450 846 l 268 1083 l 371 1083 l 513 846 l 450 846 z "},"ô":{"ha":842,"x_min":36,"x_max":806,"o":"m 136 374 q 218 158 136 245 q 422 71 300 71 q 624 158 543 71 q 705 375 705 245 q 623 592 705 507 q 414 677 541 677 q 218 590 300 677 q 136 374 136 503 m 36 372 q 149 653 36 536 q 415 770 261 770 q 691 655 577 770 q 806 382 806 541 q 694 97 806 215 q 422 -21 582 -21 q 148 95 260 -21 q 36 372 36 210 m 241 846 l 376 1083 l 479 1083 l 615 846 l 553 846 l 428 1025 l 303 846 l 241 846 z "},"ö":{"ha":842,"x_min":36,"x_max":806,"o":"m 136 374 q 218 158 136 245 q 422 71 300 71 q 624 158 543 71 q 705 375 705 245 q 623 592 705 507 q 414 677 541 677 q 218 590 300 677 q 136 374 136 503 m 36 372 q 149 653 36 536 q 415 770 261 770 q 691 655 577 770 q 806 382 806 541 q 694 97 806 215 q 422 -21 582 -21 q 148 95 260 -21 q 36 372 36 210 m 505 890 l 505 1002 l 602 1002 l 602 890 l 505 890 m 254 890 l 254 1002 l 350 1002 l 350 890 l 254 890 z "},"õ":{"ha":842,"x_min":36,"x_max":806,"o":"m 136 374 q 218 158 136 245 q 422 71 300 71 q 624 158 543 71 q 705 375 705 245 q 623 592 705 507 q 414 677 541 677 q 218 590 300 677 q 136 374 136 503 m 36 372 q 149 653 36 536 q 415 770 261 770 q 691 655 577 770 q 806 382 806 541 q 694 97 806 215 q 422 -21 582 -21 q 148 95 260 -21 q 36 372 36 210 m 624 1017 q 574 923 606 955 q 494 892 541 892 q 474 893 485 892 q 450 899 463 895 l 385 920 q 366 924 374 922 q 349 925 357 925 q 312 912 328 925 q 286 875 296 899 l 232 875 q 280 968 246 936 q 364 1000 315 1000 q 384 999 375 1000 q 400 994 393 997 l 465 974 q 484 968 474 970 q 503 966 494 966 q 541 978 526 966 q 568 1017 557 990 l 624 1017 z "},"ú":{"ha":775,"x_min":74,"x_max":700,"o":"m 74 746 l 168 746 l 168 350 q 218 134 168 197 q 380 71 267 71 q 494 97 445 71 q 572 172 543 123 q 597 241 589 201 q 604 379 604 281 l 604 746 l 700 746 l 700 0 l 604 0 l 604 81 q 507 4 561 28 q 378 -20 454 -20 q 145 67 216 -20 q 74 357 74 155 l 74 746 m 361 846 l 298 846 l 440 1083 l 543 1083 l 361 846 z "},"ù":{"ha":775,"x_min":74,"x_max":700,"o":"m 74 746 l 168 746 l 168 350 q 218 134 168 197 q 380 71 267 71 q 494 97 445 71 q 572 172 543 123 q 597 241 589 201 q 604 379 604 281 l 604 746 l 700 746 l 700 0 l 604 0 l 604 81 q 507 4 561 28 q 378 -20 454 -20 q 145 67 216 -20 q 74 357 74 155 l 74 746 m 406 846 l 223 1083 l 326 1083 l 468 846 l 406 846 z "},"û":{"ha":775,"x_min":74,"x_max":700,"o":"m 74 746 l 168 746 l 168 350 q 218 134 168 197 q 380 71 267 71 q 494 97 445 71 q 572 172 543 123 q 597 241 589 201 q 604 379 604 281 l 604 746 l 700 746 l 700 0 l 604 0 l 604 81 q 507 4 561 28 q 378 -20 454 -20 q 145 67 216 -20 q 74 357 74 155 l 74 746 m 196 846 l 332 1083 l 435 1083 l 570 846 l 508 846 l 383 1025 l 258 846 l 196 846 z "},"ü":{"ha":775,"x_min":74,"x_max":700,"o":"m 74 746 l 168 746 l 168 350 q 218 134 168 197 q 380 71 267 71 q 494 97 445 71 q 572 172 543 123 q 597 241 589 201 q 604 379 604 281 l 604 746 l 700 746 l 700 0 l 604 0 l 604 81 q 507 4 561 28 q 378 -20 454 -20 q 145 67 216 -20 q 74 357 74 155 l 74 746 m 460 890 l 460 1002 l 557 1002 l 557 890 l 460 890 m 210 890 l 210 1002 l 305 1002 l 305 890 l 210 890 z "},"†":{"ha":694,"x_min":50,"x_max":644,"o":"m 297 -157 l 297 618 l 50 618 l 50 704 l 297 704 l 297 987 l 396 987 l 396 704 l 644 704 l 644 618 l 396 618 l 396 -157 l 297 -157 z "},"°":{"ha":457,"x_min":40,"x_max":416,"o":"m 370 796 q 329 896 370 854 q 229 937 288 937 q 129 896 171 937 q 87 796 87 854 q 129 696 87 737 q 229 656 170 656 q 329 696 288 656 q 370 796 370 737 m 229 985 q 362 929 307 985 q 416 796 416 874 q 361 663 416 718 q 228 607 306 607 q 94 662 149 607 q 40 796 40 717 q 95 930 40 875 q 229 985 151 985 z "},"¢":{"ha":785,"x_min":47,"x_max":760,"o":"m 660 616 q 569 754 631 707 q 412 800 507 800 q 223 711 301 800 q 146 490 146 622 q 224 271 146 359 q 419 183 302 183 q 571 234 507 183 q 660 372 635 284 l 760 372 q 643 180 720 250 q 454 100 565 111 l 454 -56 l 364 -56 l 364 102 q 137 232 227 121 q 47 490 47 343 q 136 750 47 641 q 364 880 224 859 l 364 1023 l 454 1023 l 454 884 q 649 802 572 870 q 760 616 726 734 l 660 616 z "},"£":{"ha":785,"x_min":46,"x_max":750,"o":"m 583 550 l 583 454 l 322 454 q 363 357 351 404 q 376 257 376 310 q 365 166 376 207 q 328 86 353 126 q 368 83 349 84 q 406 82 387 82 q 594 129 533 82 q 656 273 656 176 q 653 307 656 286 q 644 359 650 328 l 741 359 q 748 312 746 330 q 750 279 750 294 q 729 163 750 218 q 668 71 707 109 q 575 17 629 33 q 431 0 522 0 l 82 0 l 82 86 l 233 86 q 275 160 262 121 q 288 248 288 198 q 272 347 288 300 q 216 456 256 394 l 46 456 l 46 550 l 144 550 q 123 631 130 597 q 117 696 117 666 q 206 917 117 829 q 432 1006 295 1006 q 627 938 549 1006 q 728 749 704 871 l 639 749 q 567 874 621 829 q 433 920 512 920 q 273 858 335 920 q 211 699 211 795 q 220 629 211 666 q 249 550 229 593 l 583 550 z "},"§":{"ha":694,"x_min":74,"x_max":618,"o":"m 265 357 l 433 250 q 499 311 479 281 q 519 379 519 341 q 496 454 519 421 q 414 524 472 487 l 264 616 q 193 566 218 598 q 168 494 168 534 q 193 422 168 458 q 265 357 218 387 m 115 86 l 208 86 l 208 78 q 243 -28 208 9 q 340 -65 277 -65 q 431 -35 398 -65 q 464 47 464 -5 q 441 121 464 90 q 354 192 418 153 l 208 282 q 108 371 142 323 q 74 471 74 419 q 107 587 74 538 q 208 672 140 636 q 154 734 171 701 q 138 812 138 767 q 197 952 138 897 q 350 1007 256 1007 q 506 950 449 1007 q 562 794 562 894 l 562 778 l 475 778 q 439 888 474 849 q 342 926 405 926 q 262 896 292 926 q 232 815 232 865 q 256 744 232 777 q 328 682 279 711 l 465 600 q 583 502 549 551 q 618 387 618 453 q 585 279 618 328 q 486 197 551 231 q 540 127 522 165 q 558 43 558 88 q 496 -95 558 -41 q 338 -149 433 -149 q 175 -91 235 -149 q 114 65 114 -33 q 115 76 114 69 q 115 86 115 83 z "},"•":{"ha":819,"x_min":208,"x_max":610,"o":"m 208 517 q 267 659 208 600 q 410 717 326 717 q 551 658 492 717 q 610 517 610 600 q 550 375 610 434 q 408 315 491 315 q 267 374 325 315 q 208 517 208 433 z "},"¶":{"ha":694,"x_min":57,"x_max":637,"o":"m 637 956 l 551 956 l 551 0 l 496 0 l 496 956 l 370 956 l 370 0 l 313 0 l 313 530 q 126 600 195 536 q 57 766 57 664 q 130 938 57 873 q 323 1003 203 1003 l 637 1003 l 637 956 z "},"ß":{"ha":814,"x_min":78,"x_max":772,"o":"m 174 665 l 174 243 l 268 243 q 345 113 295 156 q 467 69 394 69 q 610 127 549 69 q 671 264 671 185 q 603 414 671 363 q 403 465 535 465 l 342 465 l 342 543 l 346 543 q 489 592 437 543 q 542 725 542 641 q 489 855 542 804 q 355 905 437 905 q 222 854 271 905 q 174 714 174 803 l 174 665 m 78 654 q 147 913 78 829 q 358 997 216 997 q 564 921 484 997 q 643 725 643 844 q 616 610 643 656 q 542 549 589 563 q 712 453 652 523 q 772 281 772 384 q 684 66 772 153 q 464 -20 596 -20 q 286 33 357 -20 q 174 196 215 85 l 174 0 l 78 0 l 78 654 z "},"®":{"ha":1157,"x_min":82,"x_max":1075,"o":"m 576 726 l 469 726 l 469 521 l 576 521 q 704 544 667 521 q 741 621 741 566 q 702 702 741 677 q 576 726 663 726 m 593 785 q 771 746 713 785 q 829 627 829 707 q 793 526 829 566 q 694 476 756 485 l 822 212 l 724 212 l 603 464 l 469 464 l 469 212 l 383 212 l 383 785 l 593 785 m 1021 489 q 988 661 1021 580 q 895 803 956 741 q 750 900 831 866 q 578 933 669 933 q 411 901 490 933 q 269 806 332 868 q 171 659 205 740 q 136 490 136 578 q 170 323 136 403 q 267 179 203 243 q 410 82 330 116 q 578 49 490 49 q 748 83 666 49 q 895 180 829 117 q 988 319 956 241 q 1021 489 1021 397 m 578 987 q 771 950 681 987 q 932 842 862 913 q 1038 682 1001 772 q 1075 490 1075 591 q 1039 300 1075 389 q 932 142 1002 211 q 768 32 859 70 q 578 -7 676 -7 q 388 31 478 -7 q 228 140 298 68 q 119 301 157 211 q 82 490 82 391 q 120 680 82 588 q 231 844 159 772 q 388 951 299 914 q 578 987 477 987 z "},"©":{"ha":1157,"x_min":82,"x_max":1075,"o":"m 728 621 q 677 705 715 675 q 581 734 638 734 q 452 670 498 734 q 406 489 406 606 q 452 313 406 376 q 581 249 499 249 q 683 283 641 249 q 736 376 725 317 l 814 376 q 740 237 806 292 q 576 183 674 183 q 387 266 456 183 q 318 493 318 349 q 391 714 318 631 q 583 798 464 798 q 737 749 675 798 q 807 621 799 700 l 728 621 m 1021 490 q 988 661 1021 580 q 893 803 955 741 q 749 900 829 867 q 578 933 668 933 q 409 901 488 933 q 268 806 330 868 q 170 660 204 741 q 136 490 136 578 q 170 323 136 403 q 267 179 203 243 q 410 82 330 116 q 578 49 490 49 q 748 83 666 49 q 895 180 829 117 q 988 320 956 241 q 1021 490 1021 399 m 578 987 q 770 950 679 987 q 932 842 861 912 q 1038 682 1001 772 q 1075 490 1075 591 q 1039 300 1075 389 q 932 142 1002 211 q 768 32 859 70 q 578 -7 676 -7 q 389 31 479 -7 q 228 140 299 68 q 119 301 157 211 q 82 490 82 391 q 120 680 82 589 q 231 844 159 771 q 388 951 299 914 q 578 987 477 987 z "},"™":{"ha":1157,"x_min":179,"x_max":933,"o":"m 636 986 l 749 700 l 854 986 l 933 986 l 933 627 l 885 627 l 885 943 l 765 627 l 732 627 l 606 943 l 606 627 l 557 627 l 557 986 l 636 986 m 471 986 l 471 947 l 354 947 l 354 627 l 298 627 l 298 947 l 179 947 l 179 986 l 471 986 z "},"´":{"ha":694,"x_min":262,"x_max":507,"o":"m 325 846 l 262 846 l 404 1083 l 507 1083 l 325 846 z "},"¨":{"ha":694,"x_min":174,"x_max":521,"o":"m 424 890 l 424 1002 l 521 1002 l 521 890 l 424 890 m 174 890 l 174 1002 l 269 1002 l 269 890 l 174 890 z "},"≠":{"ha":1157,"x_min":172,"x_max":985,"o":"m 873 753 l 734 574 l 985 574 l 985 509 l 692 509 l 546 321 l 985 321 l 985 254 l 504 254 l 332 35 l 282 75 l 421 254 l 172 254 l 172 321 l 463 321 l 608 509 l 172 509 l 172 574 l 652 574 l 823 793 l 873 753 z "},"Æ":{"ha":1227,"x_min":-92,"x_max":1146,"o":"m 315 425 l 636 425 l 640 890 l 629 890 l 315 425 m 249 328 l 25 0 l -92 0 l 587 987 l 1146 987 l 1146 890 l 730 890 l 730 545 l 1146 545 l 1146 447 l 730 447 l 730 96 l 1146 96 l 1146 0 l 633 0 l 633 328 l 249 328 z "},"Ø":{"ha":1093,"x_min":43,"x_max":1050,"o":"m 256 205 l 778 835 q 670 894 723 876 q 554 913 617 913 q 264 791 382 913 q 146 498 146 669 q 174 337 146 413 q 256 205 203 260 m 839 778 l 318 151 q 431 94 376 112 q 545 75 486 75 q 833 198 716 75 q 950 498 950 321 q 922 648 950 579 q 839 778 895 718 m 192 127 q 80 302 117 208 q 43 501 43 395 q 82 697 43 605 q 197 864 121 789 q 358 971 270 935 q 551 1007 447 1007 q 705 984 634 1007 q 842 911 776 960 l 958 1051 l 1023 1000 l 903 856 q 1013 696 976 785 q 1050 500 1050 607 q 905 130 1050 278 q 545 -18 760 -18 q 394 4 461 -18 q 256 77 326 26 l 115 -93 l 52 -40 l 192 127 z "},"∞":{"ha":1157,"x_min":158,"x_max":1000,"o":"m 608 379 q 691 278 644 311 q 799 244 739 244 q 917 295 871 244 q 962 425 962 346 q 920 552 962 502 q 814 603 878 603 q 709 553 755 603 q 608 379 662 503 m 550 453 q 468 553 515 520 q 359 586 420 586 q 242 535 288 586 q 196 407 196 485 q 239 280 196 331 q 345 229 281 229 q 451 280 404 229 q 550 453 498 331 m 568 489 q 669 629 617 587 q 793 671 722 671 q 939 598 877 671 q 1000 418 1000 525 q 945 232 1000 303 q 802 161 890 161 q 688 202 737 161 q 589 340 638 243 q 488 204 541 246 q 371 161 436 161 q 220 234 281 161 q 158 415 158 306 q 213 600 158 530 q 357 671 269 671 q 473 627 422 671 q 568 489 524 584 z "},"±":{"ha":1157,"x_min":172,"x_max":985,"o":"m 985 102 l 985 35 l 172 35 l 172 102 l 985 102 m 612 793 l 612 557 l 985 557 l 985 490 l 612 490 l 612 254 l 546 254 l 546 490 l 172 490 l 172 557 l 546 557 l 546 793 l 612 793 z "},"≤":{"ha":1157,"x_min":179,"x_max":978,"o":"m 978 94 l 978 28 l 179 28 l 179 94 l 978 94 m 978 729 l 293 500 l 978 272 l 978 200 l 179 472 l 179 529 l 978 802 l 978 729 z "},"≥":{"ha":1157,"x_min":179,"x_max":978,"o":"m 978 94 l 978 28 l 179 28 l 179 94 l 978 94 m 978 529 l 978 472 l 179 200 l 179 272 l 864 500 l 179 729 l 179 802 l 978 529 z "},"¥":{"ha":785,"x_min":31,"x_max":754,"o":"m 578 642 l 703 642 l 703 567 l 538 567 l 478 453 l 703 453 l 703 378 l 439 378 l 439 0 l 343 0 l 343 378 l 78 378 l 78 453 l 304 453 l 245 567 l 78 567 l 78 642 l 205 642 l 31 981 l 140 981 l 395 473 l 644 981 l 754 981 l 578 642 z "},"µ":{"ha":753,"x_min":-75,"x_max":703,"o":"m 233 722 l 149 321 q 140 271 143 294 q 138 227 138 248 q 177 104 138 147 q 290 61 216 61 q 436 134 375 61 q 526 345 497 207 l 608 722 l 703 722 l 591 200 q 580 142 583 163 q 576 110 576 122 q 588 76 576 87 q 623 65 600 65 q 634 65 627 65 q 647 66 640 66 l 633 -8 q 606 -14 621 -12 q 575 -16 591 -16 q 505 9 528 -16 q 482 83 482 33 l 482 93 q 401 12 454 41 q 279 -17 348 -17 q 170 10 217 -17 q 97 89 123 37 l 20 -289 l -75 -289 l 139 722 l 233 722 z "},"∂":{"ha":701,"x_min":85,"x_max":623,"o":"m 510 401 q 522 510 518 458 q 526 611 526 562 q 499 775 526 718 q 421 832 472 832 q 348 786 387 832 q 278 739 309 739 q 242 753 257 739 q 228 785 228 766 q 271 857 228 827 q 376 888 314 888 q 555 786 488 888 q 623 510 623 684 q 530 133 623 283 q 304 -18 438 -18 q 146 54 208 -18 q 85 243 85 127 q 159 449 85 364 q 336 534 233 534 q 445 502 403 534 q 510 401 488 469 m 482 314 q 452 445 482 401 q 361 489 421 489 q 234 405 284 489 q 184 186 184 320 q 215 58 184 100 q 306 16 245 16 q 432 101 382 16 q 482 314 482 186 z "},"∑":{"ha":893,"x_min":9,"x_max":868,"o":"m 33 999 l 863 999 l 863 901 l 175 901 l 653 382 l 151 -170 l 868 -170 l 868 -267 l 9 -267 l 9 -176 l 514 380 l 33 904 l 33 999 z "},"∏":{"ha":1023,"x_min":109,"x_max":914,"o":"m 109 999 l 914 999 l 914 -267 l 800 -267 l 800 899 l 222 899 l 222 -267 l 109 -267 l 109 999 z "},"π":{"ha":794,"x_min":-3,"x_max":778,"o":"m 760 640 l 636 640 l 558 273 q 543 194 548 227 q 538 146 538 161 q 555 90 538 106 q 612 74 572 74 q 647 76 632 74 q 675 80 662 77 l 657 0 q 621 -8 638 -5 q 589 -11 604 -11 q 482 25 520 -11 q 444 126 444 61 q 452 206 444 157 q 482 364 459 255 l 541 640 l 293 640 l 158 0 l 64 0 l 199 640 l 172 640 q 114 619 135 640 q 86 551 94 597 l -3 551 q 57 685 14 648 q 203 722 100 722 l 778 722 l 760 640 z "},"∫":{"ha":668,"x_min":31,"x_max":636,"o":"m 199 -184 q 278 299 269 -184 q 281 432 279 385 q 347 906 288 762 q 529 1050 406 1050 q 606 1025 576 1050 q 636 960 636 1000 q 617 908 636 927 q 564 889 597 889 q 494 936 511 889 q 471 983 477 983 q 392 561 399 983 q 387 365 389 435 q 319 -112 377 28 q 138 -252 260 -252 q 61 -227 91 -252 q 31 -165 31 -203 q 52 -111 31 -131 q 107 -90 73 -90 q 149 -101 132 -90 q 176 -136 166 -113 q 181 -159 179 -142 q 199 -184 184 -184 z "},"ª":{"ha":657,"x_min":29,"x_max":600,"o":"m 530 729 q 467 875 530 812 q 319 937 403 937 q 166 875 230 937 q 103 721 103 812 q 166 574 103 634 q 318 514 230 514 q 467 577 404 514 q 530 729 530 640 m 530 549 q 439 477 497 503 q 315 452 382 452 q 111 530 193 452 q 29 724 29 609 q 113 920 29 841 q 322 999 196 999 q 440 975 387 999 q 530 904 494 950 l 530 987 l 600 987 l 600 465 l 530 465 l 530 549 z "},"º":{"ha":632,"x_min":28,"x_max":604,"o":"m 103 726 q 164 576 103 636 q 317 515 225 515 q 468 576 407 515 q 529 728 529 637 q 467 880 529 820 q 311 940 406 940 q 164 879 225 940 q 103 726 103 817 m 28 726 q 112 923 28 841 q 311 1004 196 1004 q 519 924 433 1004 q 604 733 604 844 q 520 534 604 616 q 317 452 437 452 q 111 532 195 452 q 28 726 28 613 z "},"Ω":{"ha":1071,"x_min":79,"x_max":991,"o":"m 991 94 l 991 0 l 597 0 l 597 86 q 810 285 738 170 q 882 539 882 400 q 786 824 882 715 q 536 933 690 933 q 286 825 382 933 q 189 541 189 716 q 261 284 189 400 q 473 86 334 169 l 473 0 l 79 0 l 79 94 l 313 94 q 139 292 195 184 q 82 532 82 399 q 210 887 82 749 q 536 1026 338 1026 q 862 888 734 1026 q 990 533 990 750 q 933 293 990 400 q 758 94 877 186 l 991 94 z "},"æ":{"ha":1511,"x_min":39,"x_max":1475,"o":"m 800 0 l 704 0 l 704 104 q 575 9 644 40 q 421 -21 507 -21 q 148 92 257 -21 q 39 370 39 205 q 150 650 39 537 q 429 762 262 762 q 573 732 507 762 q 704 639 640 703 l 704 746 l 800 746 l 800 636 q 935 731 862 701 q 1096 762 1008 762 q 1369 647 1262 762 q 1475 350 1475 532 l 1475 340 l 806 340 q 895 145 814 220 q 1090 69 975 69 q 1241 112 1174 69 q 1344 233 1308 155 l 1451 233 q 1308 45 1400 111 q 1093 -21 1215 -21 q 929 9 1001 -21 q 800 104 858 40 l 800 0 m 1372 424 q 1274 610 1348 544 q 1092 676 1200 676 q 905 609 981 676 q 808 424 829 541 l 1372 424 m 707 378 q 622 587 707 497 q 427 676 536 676 q 222 586 307 676 q 138 366 138 496 q 222 155 138 241 q 424 69 306 69 q 622 160 538 69 q 707 378 707 250 z "},"ø":{"ha":842,"x_min":21,"x_max":814,"o":"m 78 -93 l 21 -39 l 140 104 q 63 227 91 157 q 36 372 36 298 q 148 653 36 538 q 421 768 260 768 q 536 751 481 768 q 637 700 591 733 l 751 836 l 814 787 l 697 647 q 778 524 749 594 q 806 376 806 454 q 692 96 806 212 q 414 -21 579 -21 q 303 -4 355 -21 q 199 50 251 14 l 78 -93 m 258 122 q 331 83 294 96 q 412 71 368 71 q 623 156 541 71 q 705 376 705 242 q 689 481 705 432 q 639 576 673 530 l 258 122 m 578 628 q 509 665 550 652 q 422 677 469 677 q 218 591 300 677 q 136 374 136 505 q 152 268 136 317 q 200 176 168 219 l 578 628 z "},"¿":{"ha":643,"x_min":31,"x_max":603,"o":"m 262 718 l 359 718 q 333 594 359 654 q 256 478 307 534 q 219 441 243 465 q 134 271 134 361 q 181 132 134 182 q 313 81 229 81 q 449 138 400 81 q 503 301 498 195 l 603 301 q 519 68 601 157 q 307 -20 438 -20 q 107 61 184 -20 q 31 271 31 142 q 144 500 31 398 q 160 514 154 509 q 239 612 216 566 q 262 718 262 659 m 359 987 l 359 807 l 262 807 l 262 987 l 359 987 z "},"¡":{"ha":399,"x_min":151,"x_max":248,"o":"m 151 987 l 248 987 l 248 807 l 151 807 l 151 987 m 151 729 l 248 729 l 248 0 l 151 0 l 151 729 z "},"¬":{"ha":1157,"x_min":172,"x_max":985,"o":"m 985 582 l 985 241 l 920 241 l 920 514 l 172 514 l 172 582 l 985 582 z "},"√":{"ha":865,"x_min":37,"x_max":865,"o":"m 865 1109 l 865 1061 l 781 1061 l 378 -28 l 350 -28 l 127 582 l 50 555 l 37 595 l 204 653 l 389 147 l 745 1109 l 865 1109 z "},"ƒ":{"ha":785,"x_min":106,"x_max":660,"o":"m 395 -32 q 321 -229 381 -174 q 126 -285 261 -285 l 106 -285 l 113 -195 l 140 -195 q 258 -166 224 -195 q 298 -56 291 -138 l 349 510 l 175 510 l 182 600 l 355 600 l 370 753 q 437 955 382 906 q 627 1003 492 1003 l 660 1003 l 653 916 q 634 916 644 916 q 621 917 623 917 q 506 890 537 917 q 465 761 475 864 l 450 600 l 625 600 l 616 510 l 443 510 l 395 -32 z "},"≈":{"ha":1157,"x_min":121,"x_max":1038,"o":"m 1038 318 q 901 244 966 268 q 775 220 837 220 q 578 267 707 220 q 383 314 449 314 q 267 289 328 314 q 121 205 207 264 l 121 281 q 258 355 193 331 q 383 379 322 379 q 586 333 457 379 q 775 286 714 286 q 894 310 833 286 q 1038 393 954 334 l 1038 318 m 1038 547 q 903 473 967 497 q 775 449 838 449 q 577 496 705 449 q 383 543 449 543 q 267 518 328 543 q 121 435 207 494 l 121 511 q 257 585 192 561 q 383 610 322 610 q 586 563 457 610 q 775 515 714 515 q 891 539 832 515 q 1038 623 950 562 l 1038 547 z "},"∆":{"ha":913,"x_min":-7,"x_max":920,"o":"m 772 94 l 456 899 l 140 94 l 772 94 m 519 999 l 920 0 l -7 0 l 393 999 l 519 999 z "},"«":{"ha":633,"x_min":78,"x_max":543,"o":"m 450 155 l 283 372 l 450 590 l 543 590 l 376 372 l 543 155 l 450 155 m 244 155 l 78 372 l 244 590 l 338 590 l 170 372 l 338 155 l 244 155 z "},"»":{"ha":633,"x_min":90,"x_max":557,"o":"m 389 155 l 297 155 l 464 372 l 297 590 l 389 590 l 557 372 l 389 155 m 183 155 l 90 155 l 258 372 l 90 590 l 183 590 l 350 372 l 183 155 z "},"…":{"ha":1389,"x_min":183,"x_max":1206,"o":"m 280 0 l 183 0 l 183 180 l 280 180 l 280 0 m 743 0 l 646 0 l 646 180 l 743 180 l 743 0 m 1206 0 l 1109 0 l 1109 180 l 1206 180 l 1206 0 z "}," ":{"ha":785,"x_min":0,"x_max":0,"o":""},"À":{"ha":829,"x_min":-35,"x_max":847,"o":"m 68 0 l -35 0 l 349 987 l 465 987 l 847 0 l 743 0 l 625 310 l 186 310 l 68 0 m 591 399 l 404 895 l 220 399 l 591 399 m 428 1083 l 245 1320 l 349 1320 l 490 1083 l 428 1083 z "},"Ã":{"ha":829,"x_min":-35,"x_max":847,"o":"m 68 0 l -35 0 l 349 987 l 465 987 l 847 0 l 743 0 l 625 310 l 186 310 l 68 0 m 591 399 l 404 895 l 220 399 l 591 399 m 602 1254 q 551 1161 584 1192 q 472 1129 519 1129 q 452 1131 463 1129 q 428 1136 441 1133 l 362 1157 q 343 1161 352 1160 q 326 1162 335 1162 q 290 1149 306 1162 q 264 1112 274 1137 l 210 1112 q 258 1205 224 1173 q 342 1238 292 1238 q 361 1236 353 1238 q 378 1232 370 1234 l 443 1211 q 462 1206 452 1208 q 481 1204 472 1204 q 519 1216 503 1204 q 546 1254 534 1227 l 602 1254 z "},"Õ":{"ha":1093,"x_min":41,"x_max":1050,"o":"m 143 498 q 260 196 143 318 q 550 74 378 74 q 834 197 718 74 q 950 501 950 321 q 831 791 950 669 q 543 913 711 913 q 411 889 475 913 q 294 821 348 866 q 183 675 224 761 q 143 498 143 589 m 41 500 q 81 696 41 603 q 196 864 121 790 q 356 971 269 935 q 545 1007 443 1007 q 737 971 648 1007 q 899 863 825 935 q 1012 697 974 789 q 1050 500 1050 606 q 1017 307 1050 395 q 920 147 985 219 q 749 22 844 64 q 543 -20 654 -20 q 186 130 330 -20 q 41 500 41 279 m 743 1254 q 693 1161 726 1192 q 614 1129 661 1129 q 593 1131 604 1129 q 570 1136 583 1133 l 504 1157 q 485 1161 494 1160 q 468 1162 477 1162 q 432 1149 448 1162 q 406 1112 416 1137 l 351 1112 q 400 1205 366 1173 q 484 1238 434 1238 q 503 1236 494 1238 q 519 1232 512 1234 l 585 1211 q 604 1206 593 1208 q 623 1204 614 1204 q 661 1216 645 1204 q 688 1254 676 1227 l 743 1254 z "},"Œ":{"ha":1514,"x_min":41,"x_max":1457,"o":"m 945 176 q 763 28 861 76 q 543 -20 665 -20 q 186 130 330 -20 q 41 500 41 279 q 81 696 41 603 q 196 864 121 790 q 356 971 269 935 q 545 1007 443 1007 q 771 957 669 1007 q 945 810 873 907 l 945 987 l 1457 987 l 1457 890 l 1042 890 l 1042 545 l 1457 545 l 1457 447 l 1042 447 l 1042 96 l 1457 96 l 1457 0 l 945 0 l 945 176 m 143 498 q 260 196 143 318 q 550 74 378 74 q 834 197 718 74 q 950 501 950 321 q 831 791 950 669 q 543 913 711 913 q 411 889 475 913 q 294 821 348 866 q 183 675 224 761 q 143 498 143 589 z "},"œ":{"ha":1511,"x_min":36,"x_max":1475,"o":"m 1475 340 l 806 340 q 895 146 814 221 q 1090 71 975 71 q 1241 113 1175 71 q 1344 233 1308 156 l 1451 233 q 1307 45 1402 111 q 1086 -21 1213 -21 q 894 30 977 -21 q 755 182 811 81 q 619 30 703 81 q 422 -21 535 -21 q 148 94 260 -21 q 36 372 36 210 q 149 653 36 538 q 425 768 262 768 q 617 715 530 768 q 755 566 704 662 q 900 715 811 661 q 1095 768 989 768 q 1369 650 1262 768 q 1475 343 1475 532 l 1475 340 m 1372 424 q 1274 611 1348 545 q 1092 677 1200 677 q 901 607 980 677 q 808 424 823 537 l 1372 424 m 136 374 q 218 158 136 245 q 422 71 300 71 q 624 158 543 71 q 705 375 705 245 q 623 592 705 507 q 414 677 541 677 q 218 590 300 677 q 136 374 136 503 z "},"–":{"ha":694,"x_min":0,"x_max":694,"o":"m 694 410 l 694 334 l 0 334 l 0 410 l 694 410 z "},"—":{"ha":1389,"x_min":0,"x_max":1389,"o":"m 0 334 l 0 410 l 1389 410 l 1389 334 l 0 334 z "},"“":{"ha":469,"x_min":53,"x_max":453,"o":"m 357 697 l 252 987 l 349 987 l 453 697 l 357 697 m 157 697 l 53 987 l 149 987 l 254 697 l 157 697 z "},"”":{"ha":469,"x_min":17,"x_max":416,"o":"m 313 697 l 215 697 l 321 987 l 416 987 l 313 697 m 113 697 l 17 697 l 121 987 l 218 987 l 113 697 z "},"‘":{"ha":269,"x_min":53,"x_max":254,"o":"m 254 697 l 157 697 l 53 987 l 149 987 l 254 697 z "},"’":{"ha":269,"x_min":17,"x_max":218,"o":"m 113 697 l 17 697 l 121 987 l 218 987 l 113 697 z "},"÷":{"ha":1157,"x_min":172,"x_max":985,"o":"m 579 248 q 631 227 610 248 q 652 175 652 205 q 631 124 652 145 q 579 103 610 103 q 528 124 549 103 q 507 175 507 145 q 528 226 507 205 q 579 248 549 248 m 985 447 l 985 380 l 172 380 l 172 447 l 985 447 m 579 726 q 630 705 609 726 q 652 653 652 683 q 631 602 652 623 q 579 581 610 581 q 528 601 549 581 q 507 653 507 622 q 529 705 507 683 q 579 726 550 726 z "},"◊":{"ha":686,"x_min":4,"x_max":682,"o":"m 343 956 l 82 401 l 343 -158 l 604 401 l 343 956 m 343 1121 l 682 401 l 343 -323 l 4 401 l 343 1121 z "},"ÿ":{"ha":640,"x_min":-22,"x_max":671,"o":"m -22 746 l 87 746 l 318 140 l 559 746 l 671 746 l 268 -241 l 165 -241 l 265 1 l -22 746 m 397 890 l 397 1002 l 494 1002 l 494 890 l 397 890 m 147 890 l 147 1002 l 243 1002 l 243 890 l 147 890 z "},"Ÿ":{"ha":665,"x_min":-33,"x_max":694,"o":"m 378 363 l 378 0 l 282 0 l 282 364 l -33 987 l 78 987 l 330 475 l 586 987 l 694 987 l 378 363 m 410 1128 l 410 1239 l 507 1239 l 507 1128 l 410 1128 m 160 1128 l 160 1239 l 256 1239 l 256 1128 l 160 1128 z "},"∕":{"ha":232,"x_min":-232,"x_max":463,"o":"m -150 -20 l -232 -20 l 382 1007 l 463 1007 l -150 -20 z "},"¤":{"ha":785,"x_min":-4,"x_max":758,"o":"m 14 436 l 94 436 l 94 550 l 1 550 l 20 625 l 94 625 l 94 640 q 108 784 94 736 q 153 875 121 833 q 272 974 201 939 q 428 1008 343 1008 q 661 921 570 1008 q 758 728 752 833 l 660 728 q 584 870 645 820 q 428 921 522 921 q 253 852 316 921 q 191 660 191 783 l 191 625 l 624 625 l 606 550 l 191 550 l 191 436 l 591 436 l 574 361 l 191 361 l 191 326 q 253 135 191 203 q 428 66 316 66 q 579 113 519 66 q 657 245 639 160 l 757 245 q 740 177 751 208 q 708 118 728 146 q 588 16 661 52 q 428 -20 515 -20 q 273 15 343 -20 q 151 114 202 49 q 108 207 121 152 q 94 347 94 261 l 94 361 l -4 361 l 14 436 z "},"‹":{"ha":428,"x_min":78,"x_max":338,"o":"m 244 155 l 78 372 l 244 590 l 338 590 l 170 372 l 338 155 l 244 155 z "},"›":{"ha":428,"x_min":90,"x_max":350,"o":"m 183 155 l 90 155 l 258 372 l 90 590 l 183 590 l 350 372 l 183 155 z "},"":{"ha":646,"x_min":17,"x_max":553,"o":"m 457 0 l 457 746 l 553 746 l 553 0 l 457 0 m 210 0 l 117 0 l 117 663 l 17 663 l 17 746 l 113 746 l 113 766 q 172 942 113 885 q 355 999 232 999 l 364 999 l 364 913 q 243 879 279 911 q 208 766 208 846 l 208 746 l 364 746 l 364 663 l 210 663 l 210 0 m 553 833 l 457 833 l 457 987 l 553 987 l 553 833 z "},"":{"ha":646,"x_min":17,"x_max":553,"o":"m 457 0 l 457 987 l 553 987 l 553 0 l 457 0 m 210 0 l 117 0 l 117 663 l 17 663 l 17 746 l 113 746 l 113 766 q 173 942 113 885 q 357 999 233 999 l 364 999 l 364 913 q 243 879 279 911 q 208 766 208 846 l 208 746 l 364 746 l 364 663 l 210 663 l 210 0 z "},"‡":{"ha":694,"x_min":47,"x_max":647,"o":"m 294 -157 l 294 126 l 47 126 l 47 212 l 294 212 l 294 618 l 47 618 l 47 704 l 294 704 l 294 987 l 393 987 l 393 704 l 647 704 l 647 618 l 393 618 l 393 212 l 647 212 l 647 126 l 393 126 l 393 -157 l 294 -157 z "},"·":{"ha":392,"x_min":134,"x_max":260,"o":"m 134 494 q 152 539 134 521 q 196 558 170 558 q 241 539 222 558 q 260 494 260 520 q 241 450 260 469 q 196 432 222 432 q 152 450 170 432 q 134 494 134 469 z "},"‚":{"ha":269,"x_min":17,"x_max":218,"o":"m 113 -110 l 17 -110 l 121 180 l 218 180 l 113 -110 z "},"„":{"ha":469,"x_min":17,"x_max":416,"o":"m 313 -110 l 215 -110 l 321 180 l 416 180 l 313 -110 m 113 -110 l 17 -110 l 121 180 l 218 180 l 113 -110 z "},"‰":{"ha":1826,"x_min":61,"x_max":1767,"o":"m 149 761 q 193 652 149 696 q 301 607 237 607 q 411 652 366 607 q 456 761 456 697 q 411 870 456 825 q 301 916 366 916 q 193 870 237 916 q 149 761 149 825 m 61 764 q 132 936 61 865 q 306 1007 203 1007 q 478 936 407 1007 q 549 764 549 865 q 478 591 549 662 q 306 521 408 521 q 132 591 203 521 q 61 764 61 662 m 1367 222 q 1411 114 1367 159 q 1521 69 1456 69 q 1630 114 1585 69 q 1675 222 1675 158 q 1630 331 1675 286 q 1521 376 1584 376 q 1412 331 1457 376 q 1367 222 1367 286 m 1280 224 q 1351 396 1280 325 q 1524 467 1422 467 q 1696 396 1625 467 q 1767 224 1767 325 q 1696 51 1767 121 q 1524 -20 1626 -20 q 1351 51 1421 -20 q 1280 224 1280 121 m 835 1007 l 913 1007 l 386 -20 l 307 -20 l 835 1007 m 757 224 q 802 114 757 159 q 911 69 846 69 q 1020 114 975 69 q 1065 224 1065 159 q 1021 332 1065 288 q 911 376 976 376 q 802 332 846 376 q 757 224 757 288 m 669 224 q 740 396 669 325 q 913 467 811 467 q 1085 396 1014 467 q 1156 224 1156 325 q 1085 51 1156 121 q 913 -20 1015 -20 q 740 51 810 -20 q 669 224 669 121 z "},"Â":{"ha":829,"x_min":-35,"x_max":847,"o":"m 68 0 l -35 0 l 349 987 l 465 987 l 847 0 l 743 0 l 625 310 l 186 310 l 68 0 m 591 399 l 404 895 l 220 399 l 591 399 m 218 1083 l 354 1320 l 457 1320 l 593 1083 l 530 1083 l 406 1262 l 281 1083 l 218 1083 z "},"Ê":{"ha":697,"x_min":92,"x_max":604,"o":"m 189 545 l 604 545 l 604 447 l 189 447 l 189 96 l 604 96 l 604 0 l 92 0 l 92 987 l 604 987 l 604 890 l 189 890 l 189 545 m 171 1083 l 307 1320 l 410 1320 l 545 1083 l 483 1083 l 358 1262 l 233 1083 l 171 1083 z "},"Á":{"ha":829,"x_min":-35,"x_max":847,"o":"m 68 0 l -35 0 l 349 987 l 465 987 l 847 0 l 743 0 l 625 310 l 186 310 l 68 0 m 591 399 l 404 895 l 220 399 l 591 399 m 383 1083 l 321 1083 l 463 1320 l 566 1320 l 383 1083 z "},"Ë":{"ha":697,"x_min":92,"x_max":604,"o":"m 189 545 l 604 545 l 604 447 l 189 447 l 189 96 l 604 96 l 604 0 l 92 0 l 92 987 l 604 987 l 604 890 l 189 890 l 189 545 m 435 1128 l 435 1239 l 532 1239 l 532 1128 l 435 1128 m 184 1128 l 184 1239 l 280 1239 l 280 1128 l 184 1128 z "},"È":{"ha":697,"x_min":92,"x_max":604,"o":"m 189 545 l 604 545 l 604 447 l 189 447 l 189 96 l 604 96 l 604 0 l 92 0 l 92 987 l 604 987 l 604 890 l 189 890 l 189 545 m 380 1083 l 198 1320 l 301 1320 l 443 1083 l 380 1083 z "},"Í":{"ha":279,"x_min":56,"x_max":300,"o":"m 187 0 l 90 0 l 90 987 l 187 987 l 187 0 m 118 1083 l 56 1083 l 197 1320 l 300 1320 l 118 1083 z "},"Î":{"ha":279,"x_min":-47,"x_max":328,"o":"m 187 0 l 90 0 l 90 987 l 187 987 l 187 0 m -47 1083 l 89 1320 l 192 1320 l 328 1083 l 265 1083 l 140 1262 l 16 1083 l -47 1083 z "},"Ï":{"ha":279,"x_min":-33,"x_max":314,"o":"m 187 0 l 90 0 l 90 987 l 187 987 l 187 0 m 217 1128 l 217 1239 l 314 1239 l 314 1128 l 217 1128 m -33 1128 l -33 1239 l 62 1239 l 62 1128 l -33 1128 z "},"Ì":{"ha":279,"x_min":-20,"x_max":225,"o":"m 187 0 l 90 0 l 90 987 l 187 987 l 187 0 m 163 1083 l -20 1320 l 83 1320 l 225 1083 l 163 1083 z "},"Ó":{"ha":1093,"x_min":41,"x_max":1050,"o":"m 143 498 q 260 196 143 318 q 550 74 378 74 q 834 197 718 74 q 950 501 950 321 q 831 791 950 669 q 543 913 711 913 q 411 889 475 913 q 294 821 348 866 q 183 675 224 761 q 143 498 143 589 m 41 500 q 81 696 41 603 q 196 864 121 790 q 356 971 269 935 q 545 1007 443 1007 q 737 971 648 1007 q 899 863 825 935 q 1012 697 974 789 q 1050 500 1050 606 q 1017 307 1050 395 q 920 147 985 219 q 749 22 844 64 q 543 -20 654 -20 q 186 130 330 -20 q 41 500 41 279 m 525 1083 l 463 1083 l 604 1320 l 707 1320 l 525 1083 z "},"Ô":{"ha":1093,"x_min":41,"x_max":1050,"o":"m 143 498 q 260 196 143 318 q 550 74 378 74 q 834 197 718 74 q 950 501 950 321 q 831 791 950 669 q 543 913 711 913 q 411 889 475 913 q 294 821 348 866 q 183 675 224 761 q 143 498 143 589 m 41 500 q 81 696 41 603 q 196 864 121 790 q 356 971 269 935 q 545 1007 443 1007 q 737 971 648 1007 q 899 863 825 935 q 1012 697 974 789 q 1050 500 1050 606 q 1017 307 1050 395 q 920 147 985 219 q 749 22 844 64 q 543 -20 654 -20 q 186 130 330 -20 q 41 500 41 279 m 360 1083 l 496 1320 l 599 1320 l 734 1083 l 672 1083 l 547 1262 l 422 1083 l 360 1083 z "},"":{"ha":1097,"x_min":77,"x_max":1021,"o":"m 567 825 q 566 834 566 829 q 566 850 566 840 q 630 1005 566 934 q 790 1095 694 1077 q 791 1079 791 1088 q 791 1053 791 1070 q 721 893 791 964 q 583 823 651 823 l 578 823 q 573 824 576 823 q 567 825 570 825 m 1021 273 q 882 41 943 106 q 743 -24 820 -24 q 654 -1 709 -24 q 571 21 599 21 q 482 -1 541 21 q 396 -24 424 -24 q 309 6 353 -24 q 221 96 265 36 q 114 296 152 191 q 77 500 77 401 q 161 742 77 648 q 380 835 246 835 q 486 812 427 835 q 570 789 545 789 q 652 812 593 789 q 755 835 711 835 q 890 808 831 835 q 999 725 950 781 q 896 626 930 681 q 863 503 863 572 q 903 367 863 426 q 1021 273 944 308 z "},"Ò":{"ha":1093,"x_min":41,"x_max":1050,"o":"m 143 498 q 260 196 143 318 q 550 74 378 74 q 834 197 718 74 q 950 501 950 321 q 831 791 950 669 q 543 913 711 913 q 411 889 475 913 q 294 821 348 866 q 183 675 224 761 q 143 498 143 589 m 41 500 q 81 696 41 603 q 196 864 121 790 q 356 971 269 935 q 545 1007 443 1007 q 737 971 648 1007 q 899 863 825 935 q 1012 697 974 789 q 1050 500 1050 606 q 1017 307 1050 395 q 920 147 985 219 q 749 22 844 64 q 543 -20 654 -20 q 186 130 330 -20 q 41 500 41 279 m 570 1083 l 387 1320 l 490 1320 l 632 1083 l 570 1083 z "},"Ú":{"ha":785,"x_min":77,"x_max":707,"o":"m 77 987 l 174 987 l 174 363 q 179 254 174 290 q 199 191 185 218 q 276 102 225 134 q 392 71 328 71 q 557 147 504 71 q 611 383 611 223 l 611 987 l 707 987 l 707 359 q 630 73 707 168 q 399 -21 554 -21 q 155 71 233 -21 q 77 359 77 163 l 77 987 m 371 1083 l 309 1083 l 450 1320 l 553 1320 l 371 1083 z "},"Û":{"ha":785,"x_min":77,"x_max":707,"o":"m 77 987 l 174 987 l 174 363 q 179 254 174 290 q 199 191 185 218 q 276 102 225 134 q 392 71 328 71 q 557 147 504 71 q 611 383 611 223 l 611 987 l 707 987 l 707 359 q 630 73 707 168 q 399 -21 554 -21 q 155 71 233 -21 q 77 359 77 163 l 77 987 m 206 1083 l 342 1320 l 445 1320 l 581 1083 l 518 1083 l 393 1262 l 269 1083 l 206 1083 z "},"Ù":{"ha":785,"x_min":77,"x_max":707,"o":"m 77 987 l 174 987 l 174 363 q 179 254 174 290 q 199 191 185 218 q 276 102 225 134 q 392 71 328 71 q 557 147 504 71 q 611 383 611 223 l 611 987 l 707 987 l 707 359 q 630 73 707 168 q 399 -21 554 -21 q 155 71 233 -21 q 77 359 77 163 l 77 987 m 416 1083 l 233 1320 l 336 1320 l 478 1083 l 416 1083 z "},"ı":{"ha":252,"x_min":78,"x_max":174,"o":"m 78 0 l 78 746 l 174 746 l 174 0 l 78 0 z "},"ˆ":{"ha":694,"x_min":160,"x_max":534,"o":"m 160 846 l 296 1083 l 399 1083 l 534 846 l 472 846 l 347 1025 l 222 846 l 160 846 z "},"˜":{"ha":694,"x_min":151,"x_max":543,"o":"m 543 1017 q 493 923 526 955 q 414 892 460 892 q 393 893 404 892 q 370 899 382 895 l 304 920 q 285 924 294 922 q 268 925 277 925 q 232 912 248 925 q 205 875 216 899 l 151 875 q 200 968 165 936 q 283 1000 234 1000 q 303 999 294 1000 q 319 994 312 997 l 385 974 q 404 968 393 970 q 422 966 414 966 q 460 978 445 966 q 488 1017 476 990 l 543 1017 z "},"¯":{"ha":694,"x_min":174,"x_max":521,"o":"m 174 913 l 174 991 l 521 991 l 521 913 l 174 913 z "},"˘":{"ha":694,"x_min":161,"x_max":533,"o":"m 161 1054 l 215 1054 q 251 979 219 1003 q 347 956 283 956 q 443 979 412 956 q 478 1054 473 1002 l 533 1054 q 483 919 527 962 q 347 876 438 876 q 212 919 257 876 q 161 1054 168 962 z "},"˙":{"ha":694,"x_min":296,"x_max":399,"o":"m 296 895 l 296 1014 l 399 1014 l 399 895 l 296 895 z "},"˚":{"ha":694,"x_min":184,"x_max":511,"o":"m 245 996 q 275 924 245 953 q 347 895 304 895 q 419 924 389 895 q 449 996 449 954 q 419 1068 449 1038 q 347 1099 389 1099 q 275 1069 304 1099 q 245 996 245 1039 m 184 997 q 232 1113 184 1065 q 347 1160 279 1160 q 463 1112 415 1160 q 511 997 511 1065 q 463 882 511 930 q 347 833 415 833 q 232 881 279 833 q 184 997 184 929 z "},"¸":{"ha":694,"x_min":184,"x_max":510,"o":"m 347 -75 l 361 -75 q 472 -105 433 -75 q 510 -192 510 -135 q 470 -280 510 -249 q 355 -311 430 -311 q 276 -305 317 -311 q 184 -285 236 -299 l 184 -232 q 283 -251 247 -245 q 346 -256 319 -256 q 411 -240 389 -256 q 433 -195 433 -225 q 410 -140 433 -157 q 336 -123 387 -123 q 317 -124 323 -123 q 304 -125 311 -124 l 304 0 l 347 0 l 347 -75 z "},"˝":{"ha":694,"x_min":228,"x_max":591,"o":"m 387 846 l 501 1083 l 591 1083 l 437 846 l 387 846 m 228 846 l 329 1083 l 419 1083 l 278 846 l 228 846 z "},"˛":{"ha":694,"x_min":228,"x_max":419,"o":"m 393 0 q 319 -83 344 -43 q 294 -160 294 -123 q 311 -205 294 -191 q 368 -218 328 -218 l 419 -218 l 419 -289 l 370 -289 q 262 -262 296 -289 q 228 -179 228 -235 q 259 -92 228 -138 q 351 0 290 -47 l 393 0 z "},"ˇ":{"ha":694,"x_min":160,"x_max":534,"o":"m 160 1083 l 222 1083 l 347 905 l 472 1083 l 534 1083 l 399 847 l 296 847 l 160 1083 z "},"Ł":{"ha":582,"x_min":0,"x_max":546,"o":"m 546 0 l 102 0 l 102 390 l 0 318 l 0 415 l 102 486 l 102 987 l 199 987 l 199 553 l 372 673 l 372 575 l 199 456 l 199 96 l 546 96 l 546 0 z "},"ł":{"ha":264,"x_min":0,"x_max":277,"o":"m 90 0 l 90 437 l 0 375 l 0 469 l 90 533 l 90 987 l 186 987 l 186 596 l 277 660 l 277 564 l 186 501 l 186 0 l 90 0 z "},"Š":{"ha":646,"x_min":39,"x_max":599,"o":"m 39 282 l 133 282 q 185 136 136 191 q 314 82 234 82 q 451 136 400 82 q 501 282 501 190 q 294 485 501 416 q 269 493 277 490 q 113 588 161 530 q 65 737 65 645 q 139 930 65 855 q 329 1006 212 1006 q 505 937 440 1006 q 578 745 570 869 l 486 745 q 438 869 479 825 q 329 913 397 913 q 209 865 256 913 q 163 743 163 817 q 177 676 163 705 q 221 625 191 648 q 340 574 252 602 q 418 547 391 557 q 556 452 514 510 q 599 300 599 394 q 520 68 599 156 q 313 -20 442 -20 q 117 63 192 -20 q 39 282 41 146 m 136 1320 l 199 1320 l 323 1143 l 448 1320 l 511 1320 l 375 1084 l 272 1084 l 136 1320 z "},"š":{"ha":541,"x_min":29,"x_max":503,"o":"m 29 235 l 127 235 l 127 232 q 168 116 127 162 q 267 71 208 71 q 360 106 323 71 q 397 195 397 141 q 368 281 397 248 q 261 342 338 313 q 99 432 137 386 q 61 555 61 478 q 124 704 61 643 q 278 765 188 765 q 430 711 374 765 q 490 559 486 656 l 388 559 q 354 642 385 612 q 272 671 324 671 q 194 639 225 671 q 163 561 163 608 q 176 505 163 528 q 218 464 189 482 q 297 431 245 447 q 367 408 349 416 q 470 329 437 378 q 503 203 503 279 q 435 43 503 106 q 265 -20 368 -20 q 96 49 160 -20 q 29 235 33 118 m 83 1083 l 146 1083 l 271 905 l 395 1083 l 458 1083 l 322 847 l 219 847 l 83 1083 z "},"Ž":{"ha":636,"x_min":26,"x_max":610,"o":"m 488 890 l 54 890 l 54 987 l 600 987 l 600 895 l 138 96 l 610 96 l 610 0 l 26 0 l 26 93 l 488 890 m 131 1320 l 193 1320 l 318 1143 l 443 1320 l 505 1320 l 370 1084 l 267 1084 l 131 1320 z "},"ž":{"ha":559,"x_min":14,"x_max":529,"o":"m 529 0 l 14 0 l 14 90 l 403 656 l 57 656 l 57 746 l 509 746 l 509 643 l 127 96 l 529 96 l 529 0 m 94 1083 l 156 1083 l 281 905 l 406 1083 l 468 1083 l 332 847 l 229 847 l 94 1083 z "},"¦":{"ha":694,"x_min":311,"x_max":385,"o":"m 385 277 l 385 -237 l 311 -237 l 311 277 l 385 277 m 385 971 l 385 457 l 311 457 l 311 971 l 385 971 z "},"Ð":{"ha":936,"x_min":-3,"x_max":895,"o":"m 407 893 l 197 893 l 197 539 l 440 539 l 440 453 l 197 453 l 197 93 l 425 93 q 691 203 591 93 q 790 498 790 314 q 687 787 790 680 q 407 893 585 893 m 102 0 l 102 453 l -3 453 l -3 539 l 102 539 l 102 987 l 399 987 q 758 850 621 987 q 895 490 895 712 q 843 261 895 366 q 694 85 791 156 q 563 19 633 39 q 358 0 493 0 l 102 0 z "},"ð":{"ha":842,"x_min":36,"x_max":806,"o":"m 415 635 q 220 552 302 635 q 138 351 138 470 q 219 151 138 231 q 422 71 300 71 q 625 153 544 71 q 705 359 705 235 q 623 556 705 477 q 415 635 540 635 m 667 621 q 605 735 644 683 q 513 829 566 788 l 330 762 l 306 818 l 457 875 q 407 904 434 889 q 349 933 380 918 l 378 996 q 470 951 430 972 q 545 907 510 930 l 739 977 l 762 922 l 602 863 q 753 652 701 770 q 806 401 806 534 q 699 96 806 212 q 421 -20 591 -20 q 148 88 260 -20 q 36 346 36 196 q 149 605 36 496 q 415 714 261 714 q 543 692 483 714 q 667 621 602 670 z "},"Ý":{"ha":665,"x_min":-33,"x_max":694,"o":"m 378 363 l 378 0 l 282 0 l 282 364 l -33 987 l 78 987 l 330 475 l 586 987 l 694 987 l 378 363 m 311 1083 l 249 1083 l 391 1320 l 494 1320 l 311 1083 z "},"ý":{"ha":640,"x_min":-22,"x_max":671,"o":"m -22 746 l 87 746 l 318 140 l 559 746 l 671 746 l 268 -241 l 165 -241 l 265 1 l -22 746 m 298 846 l 236 846 l 378 1083 l 481 1083 l 298 846 z "},"Þ":{"ha":701,"x_min":81,"x_max":660,"o":"m 178 699 l 178 323 l 321 323 q 494 371 436 323 q 553 513 553 418 q 534 601 553 560 q 481 665 515 641 q 423 691 456 683 q 313 699 391 699 l 178 699 m 81 987 l 178 987 l 178 796 l 309 796 q 440 788 393 796 q 521 760 488 779 q 622 656 585 722 q 660 517 660 591 q 566 303 660 382 q 307 224 471 224 l 178 224 l 178 0 l 81 0 l 81 987 z "},"þ":{"ha":875,"x_min":74,"x_max":836,"o":"m 447 673 q 252 585 335 673 q 168 374 168 496 q 253 159 168 250 q 450 69 338 69 q 652 155 568 69 q 736 366 736 241 q 652 585 736 497 q 447 673 568 673 m 171 118 l 171 -45 l 171 -241 l 74 -241 l 74 987 l 171 987 l 168 624 q 284 725 209 687 q 446 762 360 762 q 724 651 612 762 q 836 379 836 540 q 728 94 836 207 q 453 -20 619 -20 q 289 16 362 -20 q 171 118 216 52 z "},"−":{"ha":1157,"x_min":172,"x_max":985,"o":"m 985 447 l 985 380 l 172 380 l 172 447 l 985 447 z "},"×":{"ha":1157,"x_min":207,"x_max":954,"o":"m 581 461 l 907 787 l 954 741 l 628 414 l 954 87 l 907 40 l 581 367 l 254 40 l 207 87 l 533 414 l 207 741 l 254 787 l 581 461 z "},"¹":{"ha":518,"x_min":121,"x_max":302,"o":"m 302 395 l 235 395 l 235 936 l 121 936 l 121 987 l 302 987 l 302 395 z "},"²":{"ha":518,"x_min":60,"x_max":465,"o":"m 464 395 l 60 395 l 60 452 l 290 652 q 379 742 356 707 q 403 815 403 778 q 363 909 403 871 q 261 946 323 946 q 160 908 198 946 q 122 806 122 869 l 122 789 l 60 789 l 60 798 q 118 944 60 887 q 267 1000 176 1000 q 407 946 349 1000 q 465 811 465 891 q 441 722 465 764 q 364 636 416 680 l 144 452 l 464 452 l 464 395 z "},"³":{"ha":518,"x_min":49,"x_max":465,"o":"m 114 575 l 114 570 q 154 472 114 511 q 253 433 194 433 q 358 472 317 433 q 400 571 400 511 q 356 673 400 638 q 228 708 312 708 l 197 708 l 197 757 q 209 756 203 756 q 225 755 214 755 q 321 780 289 755 q 354 852 354 804 q 327 921 354 894 q 257 947 299 947 q 182 921 209 947 q 154 847 155 895 l 94 847 q 143 958 98 918 q 260 999 187 999 q 374 956 327 999 q 421 852 421 912 q 406 791 421 817 q 357 743 391 765 q 438 675 411 717 q 465 576 465 633 q 406 439 465 494 q 257 383 347 383 q 105 434 161 383 q 49 575 50 485 l 114 575 z "},"¼":{"ha":1221,"x_min":115,"x_max":1183,"o":"m 1057 154 l 1060 489 l 828 154 l 1057 154 m 1116 0 l 1055 0 l 1055 107 l 764 107 l 764 154 l 1046 553 l 1116 553 l 1116 154 l 1183 154 l 1183 107 l 1116 107 l 1116 0 m 345 -20 l 262 -20 l 876 1007 l 957 1007 l 345 -20 m 289 435 l 224 435 l 224 940 l 115 940 l 115 987 l 289 987 l 289 435 z "},"½":{"ha":1221,"x_min":115,"x_max":1171,"o":"m 1169 0 l 783 0 l 783 54 l 1004 239 q 1090 327 1069 294 q 1111 393 1111 359 q 1073 480 1111 445 q 977 515 1035 515 q 879 479 916 515 q 843 383 843 444 l 843 368 l 783 368 l 783 376 q 839 513 783 460 q 981 566 894 566 q 1115 514 1059 566 q 1171 389 1171 463 q 1147 307 1171 346 q 1074 225 1124 267 l 864 54 l 1169 54 l 1169 0 m 345 -20 l 262 -20 l 876 1007 l 957 1007 l 345 -20 m 289 435 l 224 435 l 224 940 l 115 940 l 115 987 l 289 987 l 289 435 z "},"¾":{"ha":1221,"x_min":46,"x_max":1183,"o":"m 1057 154 l 1060 489 l 828 154 l 1057 154 m 1116 0 l 1055 0 l 1055 107 l 764 107 l 764 154 l 1046 553 l 1116 553 l 1116 154 l 1183 154 l 1183 107 l 1116 107 l 1116 0 m 345 -20 l 262 -20 l 876 1007 l 957 1007 l 345 -20 m 109 603 l 109 599 q 147 507 109 544 q 241 471 185 471 q 342 507 302 471 q 382 599 382 543 q 340 695 382 662 q 216 728 298 728 l 187 728 l 188 774 q 198 773 192 773 q 215 772 204 772 q 308 795 277 772 q 339 863 339 818 q 312 926 339 901 q 245 951 286 951 q 174 927 200 951 q 147 859 147 902 l 90 859 q 137 961 94 923 q 249 999 180 999 q 357 959 313 999 q 401 863 401 918 q 387 805 401 829 q 342 760 373 781 q 418 697 393 736 q 443 604 443 659 q 386 476 443 528 q 244 424 330 424 q 101 471 153 424 q 46 603 48 519 l 109 603 z "},"₣":{"ha":1019,"x_min":92,"x_max":1013,"o":"m 92 0 l 92 987 l 579 987 l 579 890 l 187 890 l 187 545 l 579 545 l 579 447 l 187 447 l 187 0 l 92 0 m 844 0 l 747 0 l 747 746 l 838 746 l 838 660 q 915 732 873 709 q 1012 757 956 755 l 1013 653 q 883 599 922 645 q 844 450 844 553 l 844 0 z "},"Ğ":{"ha":1093,"x_min":41,"x_max":1050,"o":"m 436 473 l 1050 473 q 895 119 1038 258 q 543 -20 751 -20 q 185 130 330 -20 q 41 500 41 279 q 81 696 41 604 q 196 864 120 789 q 358 972 269 937 q 555 1007 447 1007 q 813 938 699 1007 q 997 739 928 868 l 878 739 q 728 870 808 828 q 550 913 648 913 q 262 791 380 913 q 144 498 144 669 q 262 195 144 317 q 551 74 379 74 q 794 161 687 74 q 935 386 902 248 l 436 386 l 436 473 m 361 1291 l 415 1291 q 451 1217 419 1240 q 547 1193 483 1193 q 643 1216 612 1193 q 678 1291 673 1240 l 733 1291 q 683 1156 727 1199 q 547 1114 638 1114 q 412 1157 457 1114 q 361 1291 368 1200 z "},"ğ":{"ha":868,"x_min":36,"x_max":796,"o":"m 204 -61 q 283 -162 226 -126 q 421 -199 340 -199 q 626 -114 549 -199 q 703 113 703 -29 l 703 132 q 579 21 648 58 q 427 -17 510 -17 q 147 95 258 -17 q 36 375 36 208 q 146 652 36 540 q 418 764 256 764 q 581 730 512 764 q 703 624 650 696 l 703 746 l 796 746 l 796 123 q 698 -182 796 -72 q 428 -292 600 -292 q 210 -229 301 -292 q 93 -61 119 -166 l 204 -61 m 138 379 q 221 160 138 248 q 421 72 304 72 q 616 160 532 72 q 701 368 701 249 q 618 586 701 496 q 421 676 534 676 q 221 590 304 676 q 138 379 138 505 m 249 1054 l 302 1054 q 338 979 307 1003 q 435 956 370 956 q 530 979 500 956 q 566 1054 561 1002 l 621 1054 q 570 919 614 962 q 435 876 526 876 q 300 919 345 876 q 249 1054 255 962 z "},"İ":{"ha":279,"x_min":89,"x_max":192,"o":"m 187 0 l 90 0 l 90 987 l 187 987 l 187 0 m 89 1132 l 89 1251 l 192 1251 l 192 1132 l 89 1132 z "},"Ş":{"ha":646,"x_min":39,"x_max":599,"o":"m 39 282 l 133 282 q 185 136 136 191 q 314 82 234 82 q 451 136 400 82 q 501 282 501 190 q 294 485 501 416 q 269 493 277 490 q 113 588 161 530 q 65 737 65 645 q 139 930 65 855 q 329 1006 212 1006 q 505 937 440 1006 q 578 745 570 869 l 486 745 q 438 869 479 825 q 329 913 397 913 q 209 865 256 913 q 163 743 163 817 q 177 676 163 705 q 221 625 191 648 q 340 574 252 602 q 418 547 391 557 q 556 452 514 510 q 599 300 599 394 q 520 68 599 156 q 313 -20 442 -20 q 117 63 192 -20 q 39 282 41 146 m 323 -75 l 337 -75 q 448 -105 410 -75 q 486 -192 486 -135 q 446 -280 486 -249 q 332 -311 406 -311 q 253 -305 293 -311 q 161 -285 212 -299 l 161 -232 q 259 -251 223 -245 q 322 -256 296 -256 q 388 -240 366 -256 q 410 -195 410 -225 q 386 -140 410 -157 q 313 -123 363 -123 q 293 -124 300 -123 q 281 -125 287 -124 l 281 0 l 323 0 l 323 -75 z "},"ş":{"ha":541,"x_min":29,"x_max":503,"o":"m 29 235 l 127 235 l 127 232 q 168 116 127 162 q 267 71 208 71 q 360 106 323 71 q 397 195 397 141 q 368 281 397 248 q 261 342 338 313 q 99 432 137 386 q 61 555 61 478 q 124 704 61 643 q 278 765 188 765 q 430 711 374 765 q 490 559 486 656 l 388 559 q 354 642 385 612 q 272 671 324 671 q 194 639 225 671 q 163 561 163 608 q 176 505 163 528 q 218 464 189 482 q 297 431 245 447 q 367 408 349 416 q 470 329 437 378 q 503 203 503 279 q 435 43 503 106 q 265 -20 368 -20 q 96 49 160 -20 q 29 235 33 118 m 271 -75 l 284 -75 q 395 -105 357 -75 q 433 -192 433 -135 q 393 -280 433 -249 q 279 -311 353 -311 q 200 -305 240 -311 q 108 -285 159 -299 l 108 -232 q 207 -251 170 -245 q 269 -256 243 -256 q 335 -240 313 -256 q 357 -195 357 -225 q 333 -140 357 -157 q 260 -123 310 -123 q 240 -124 247 -123 q 228 -125 234 -124 l 228 0 l 271 0 l 271 -75 z "},"Ć":{"ha":1044,"x_min":41,"x_max":996,"o":"m 879 732 q 730 867 812 824 q 543 911 648 911 q 261 789 378 911 q 144 498 144 667 q 261 197 144 319 q 543 74 377 74 q 728 117 646 74 q 872 244 811 159 l 987 244 q 806 49 920 118 q 550 -20 692 -20 q 187 129 332 -20 q 41 500 41 277 q 81 696 41 604 q 196 864 120 789 q 354 971 267 935 q 545 1007 442 1007 q 809 935 692 1007 q 996 732 927 863 l 879 732 m 521 1083 l 458 1083 l 600 1320 l 703 1320 l 521 1083 z "},"ć":{"ha":842,"x_min":39,"x_max":779,"o":"m 673 517 q 566 637 629 598 q 415 676 503 676 q 219 589 300 676 q 139 372 139 501 q 220 157 139 243 q 419 71 300 71 q 572 113 506 71 q 673 233 639 156 l 779 233 q 643 45 736 112 q 424 -21 550 -21 q 150 94 262 -21 q 39 371 39 209 q 152 651 39 536 q 427 766 264 766 q 641 701 548 766 q 779 517 733 635 l 673 517 m 399 846 l 336 846 l 478 1083 l 581 1083 l 399 846 z "},"Č":{"ha":1044,"x_min":41,"x_max":996,"o":"m 879 732 q 730 867 812 824 q 543 911 648 911 q 261 789 378 911 q 144 498 144 667 q 261 197 144 319 q 543 74 377 74 q 728 117 646 74 q 872 244 811 159 l 987 244 q 806 49 920 118 q 550 -20 692 -20 q 187 129 332 -20 q 41 500 41 277 q 81 696 41 604 q 196 864 120 789 q 354 971 267 935 q 545 1007 442 1007 q 809 935 692 1007 q 996 732 927 863 l 879 732 m 356 1320 l 418 1320 l 543 1143 l 668 1320 l 730 1320 l 595 1084 l 492 1084 l 356 1320 z "},"č":{"ha":842,"x_min":39,"x_max":779,"o":"m 673 517 q 566 637 629 598 q 415 676 503 676 q 219 589 300 676 q 139 372 139 501 q 220 157 139 243 q 419 71 300 71 q 572 113 506 71 q 673 233 639 156 l 779 233 q 643 45 736 112 q 424 -21 550 -21 q 150 94 262 -21 q 39 371 39 209 q 152 651 39 536 q 427 766 264 766 q 641 701 548 766 q 779 517 733 635 l 673 517 m 234 1083 l 296 1083 l 421 905 l 546 1083 l 608 1083 l 473 847 l 370 847 l 234 1083 z "},"đ":{"ha":885,"x_min":39,"x_max":901,"o":"m 707 366 q 622 583 707 493 q 424 673 538 673 q 222 588 306 673 q 138 378 138 502 q 222 158 138 247 q 427 69 307 69 q 622 158 537 69 q 707 366 707 247 m 708 628 q 705 700 706 663 q 704 794 704 736 l 704 810 l 505 810 l 505 884 l 704 884 l 704 987 l 800 987 l 800 884 l 901 884 l 901 810 l 800 810 l 800 0 l 707 0 l 707 113 q 579 15 654 50 q 421 -20 504 -20 q 149 94 260 -20 q 39 374 39 208 q 148 650 39 538 q 421 762 257 762 q 582 728 509 762 q 708 628 654 694 z "},"­":{"ha":447,"x_min":64,"x_max":382,"o":"m 382 418 l 382 328 l 64 328 l 64 418 l 382 418 z "},"∙":{"ha":392,"x_min":134,"x_max":260,"o":"m 134 494 q 152 539 134 521 q 196 558 170 558 q 241 539 222 558 q 260 494 260 520 q 241 450 260 469 q 196 432 222 432 q 152 450 170 432 q 134 494 134 469 z "},"":{"ha":785,"x_min":-4,"x_max":758,"o":"m 14 436 l 94 436 l 94 550 l 1 550 l 20 625 l 94 625 l 94 640 q 108 784 94 736 q 153 875 121 833 q 272 974 201 939 q 428 1008 343 1008 q 661 921 570 1008 q 758 728 752 833 l 660 728 q 584 870 645 820 q 428 921 522 921 q 253 852 316 921 q 191 660 191 783 l 191 625 l 624 625 l 606 550 l 191 550 l 191 436 l 591 436 l 574 361 l 191 361 l 191 326 q 253 135 191 203 q 428 66 316 66 q 579 113 519 66 q 657 245 639 160 l 757 245 q 740 177 751 208 q 708 118 728 146 q 588 16 661 52 q 428 -20 515 -20 q 273 15 343 -20 q 151 114 202 49 q 108 207 121 152 q 94 347 94 261 l 94 361 l -4 361 l 14 436 z "}}}
